%TF.GenerationSoftware,KiCad,Pcbnew,7.0.9-7.0.9~ubuntu20.04.1*%
%TF.CreationDate,2023-12-17T15:18:54+01:00*%
%TF.ProjectId,kicad-pmod_rs485,6b696361-642d-4706-9d6f-645f72733438,rev?*%
%TF.SameCoordinates,Original*%
%TF.FileFunction,Drillmap*%
%TF.FilePolarity,Positive*%
%FSLAX45Y45*%
G04 Gerber Fmt 4.5, Leading zero omitted, Abs format (unit mm)*
G04 Created by KiCad (PCBNEW 7.0.9-7.0.9~ubuntu20.04.1) date 2023-12-17 15:18:54*
%MOMM*%
%LPD*%
G01*
G04 APERTURE LIST*
%ADD10C,0.100000*%
%ADD11C,0.200000*%
G04 APERTURE END LIST*
D10*
X11760200Y-6159500D02*
X11760200Y-10972800D01*
X13716000Y-11049000D02*
G75*
G03*
X13792200Y-10972800I0J76200D01*
G01*
X13754100Y-6121400D02*
X11798300Y-6121400D01*
X11760200Y-10972800D02*
G75*
G03*
X11836400Y-11049000I76200J0D01*
G01*
X11798300Y-6121400D02*
G75*
G03*
X11760200Y-6159500I0J-38100D01*
G01*
X13792200Y-6159500D02*
G75*
G03*
X13754100Y-6121400I-38100J0D01*
G01*
X13792200Y-10972800D02*
X13792200Y-6159500D01*
X11836400Y-11049000D02*
X13716000Y-11049000D01*
D11*
X12015977Y-11365484D02*
X12015977Y-11165484D01*
X12015977Y-11165484D02*
X12063596Y-11165484D01*
X12063596Y-11165484D02*
X12092167Y-11175008D01*
X12092167Y-11175008D02*
X12111215Y-11194055D01*
X12111215Y-11194055D02*
X12120739Y-11213103D01*
X12120739Y-11213103D02*
X12130262Y-11251198D01*
X12130262Y-11251198D02*
X12130262Y-11279769D01*
X12130262Y-11279769D02*
X12120739Y-11317865D01*
X12120739Y-11317865D02*
X12111215Y-11336912D01*
X12111215Y-11336912D02*
X12092167Y-11355960D01*
X12092167Y-11355960D02*
X12063596Y-11365484D01*
X12063596Y-11365484D02*
X12015977Y-11365484D01*
X12215977Y-11365484D02*
X12215977Y-11232150D01*
X12215977Y-11270246D02*
X12225501Y-11251198D01*
X12225501Y-11251198D02*
X12235024Y-11241674D01*
X12235024Y-11241674D02*
X12254072Y-11232150D01*
X12254072Y-11232150D02*
X12273120Y-11232150D01*
X12339786Y-11365484D02*
X12339786Y-11232150D01*
X12339786Y-11165484D02*
X12330262Y-11175008D01*
X12330262Y-11175008D02*
X12339786Y-11184531D01*
X12339786Y-11184531D02*
X12349310Y-11175008D01*
X12349310Y-11175008D02*
X12339786Y-11165484D01*
X12339786Y-11165484D02*
X12339786Y-11184531D01*
X12463596Y-11365484D02*
X12444548Y-11355960D01*
X12444548Y-11355960D02*
X12435024Y-11336912D01*
X12435024Y-11336912D02*
X12435024Y-11165484D01*
X12568358Y-11365484D02*
X12549310Y-11355960D01*
X12549310Y-11355960D02*
X12539786Y-11336912D01*
X12539786Y-11336912D02*
X12539786Y-11165484D01*
X12796929Y-11365484D02*
X12796929Y-11165484D01*
X12796929Y-11165484D02*
X12863596Y-11308341D01*
X12863596Y-11308341D02*
X12930262Y-11165484D01*
X12930262Y-11165484D02*
X12930262Y-11365484D01*
X13111215Y-11365484D02*
X13111215Y-11260722D01*
X13111215Y-11260722D02*
X13101691Y-11241674D01*
X13101691Y-11241674D02*
X13082643Y-11232150D01*
X13082643Y-11232150D02*
X13044548Y-11232150D01*
X13044548Y-11232150D02*
X13025501Y-11241674D01*
X13111215Y-11355960D02*
X13092167Y-11365484D01*
X13092167Y-11365484D02*
X13044548Y-11365484D01*
X13044548Y-11365484D02*
X13025501Y-11355960D01*
X13025501Y-11355960D02*
X13015977Y-11336912D01*
X13015977Y-11336912D02*
X13015977Y-11317865D01*
X13015977Y-11317865D02*
X13025501Y-11298817D01*
X13025501Y-11298817D02*
X13044548Y-11289293D01*
X13044548Y-11289293D02*
X13092167Y-11289293D01*
X13092167Y-11289293D02*
X13111215Y-11279769D01*
X13206453Y-11232150D02*
X13206453Y-11432150D01*
X13206453Y-11241674D02*
X13225501Y-11232150D01*
X13225501Y-11232150D02*
X13263596Y-11232150D01*
X13263596Y-11232150D02*
X13282643Y-11241674D01*
X13282643Y-11241674D02*
X13292167Y-11251198D01*
X13292167Y-11251198D02*
X13301691Y-11270246D01*
X13301691Y-11270246D02*
X13301691Y-11327388D01*
X13301691Y-11327388D02*
X13292167Y-11346436D01*
X13292167Y-11346436D02*
X13282643Y-11355960D01*
X13282643Y-11355960D02*
X13263596Y-11365484D01*
X13263596Y-11365484D02*
X13225501Y-11365484D01*
X13225501Y-11365484D02*
X13206453Y-11355960D01*
X13387405Y-11346436D02*
X13396929Y-11355960D01*
X13396929Y-11355960D02*
X13387405Y-11365484D01*
X13387405Y-11365484D02*
X13377882Y-11355960D01*
X13377882Y-11355960D02*
X13387405Y-11346436D01*
X13387405Y-11346436D02*
X13387405Y-11365484D01*
X13387405Y-11241674D02*
X13396929Y-11251198D01*
X13396929Y-11251198D02*
X13387405Y-11260722D01*
X13387405Y-11260722D02*
X13377882Y-11251198D01*
X13377882Y-11251198D02*
X13387405Y-11241674D01*
X13387405Y-11241674D02*
X13387405Y-11260722D01*
M02*
