G04 #@! TF.GenerationSoftware,KiCad,Pcbnew,7.0.9-7.0.9~ubuntu20.04.1*
G04 #@! TF.CreationDate,2023-12-17T15:18:06+01:00*
G04 #@! TF.ProjectId,kicad-pmod_rs485,6b696361-642d-4706-9d6f-645f72733438,rev?*
G04 #@! TF.SameCoordinates,Original*
G04 #@! TF.FileFunction,Legend,Top*
G04 #@! TF.FilePolarity,Positive*
%FSLAX46Y46*%
G04 Gerber Fmt 4.6, Leading zero omitted, Abs format (unit mm)*
G04 Created by KiCad (PCBNEW 7.0.9-7.0.9~ubuntu20.04.1) date 2023-12-17 15:18:06*
%MOMM*%
%LPD*%
G01*
G04 APERTURE LIST*
G04 Aperture macros list*
%AMRoundRect*
0 Rectangle with rounded corners*
0 $1 Rounding radius*
0 $2 $3 $4 $5 $6 $7 $8 $9 X,Y pos of 4 corners*
0 Add a 4 corners polygon primitive as box body*
4,1,4,$2,$3,$4,$5,$6,$7,$8,$9,$2,$3,0*
0 Add four circle primitives for the rounded corners*
1,1,$1+$1,$2,$3*
1,1,$1+$1,$4,$5*
1,1,$1+$1,$6,$7*
1,1,$1+$1,$8,$9*
0 Add four rect primitives between the rounded corners*
20,1,$1+$1,$2,$3,$4,$5,0*
20,1,$1+$1,$4,$5,$6,$7,0*
20,1,$1+$1,$6,$7,$8,$9,0*
20,1,$1+$1,$8,$9,$2,$3,0*%
G04 Aperture macros list end*
%ADD10C,0.250000*%
%ADD11C,0.150000*%
%ADD12C,0.120000*%
%ADD13R,3.000000X3.000000*%
%ADD14C,3.000000*%
%ADD15R,1.700000X1.700000*%
%ADD16O,1.700000X1.700000*%
%ADD17RoundRect,0.237500X0.300000X0.237500X-0.300000X0.237500X-0.300000X-0.237500X0.300000X-0.237500X0*%
%ADD18RoundRect,0.237500X0.237500X-0.287500X0.237500X0.287500X-0.237500X0.287500X-0.237500X-0.287500X0*%
%ADD19R,1.600000X2.180000*%
%ADD20RoundRect,0.150000X-0.150000X0.875000X-0.150000X-0.875000X0.150000X-0.875000X0.150000X0.875000X0*%
G04 APERTURE END LIST*
D10*
X129944857Y-99185357D02*
X130659143Y-99185357D01*
X129802000Y-99613928D02*
X130302000Y-98113928D01*
X130302000Y-98113928D02*
X130802000Y-99613928D01*
D11*
X133881952Y-93087819D02*
X133310524Y-93087819D01*
X133596238Y-93087819D02*
X133596238Y-92087819D01*
X133596238Y-92087819D02*
X133501000Y-92230676D01*
X133501000Y-92230676D02*
X133405762Y-92325914D01*
X133405762Y-92325914D02*
X133310524Y-92373533D01*
X134262905Y-92183057D02*
X134310524Y-92135438D01*
X134310524Y-92135438D02*
X134405762Y-92087819D01*
X134405762Y-92087819D02*
X134643857Y-92087819D01*
X134643857Y-92087819D02*
X134739095Y-92135438D01*
X134739095Y-92135438D02*
X134786714Y-92183057D01*
X134786714Y-92183057D02*
X134834333Y-92278295D01*
X134834333Y-92278295D02*
X134834333Y-92373533D01*
X134834333Y-92373533D02*
X134786714Y-92516390D01*
X134786714Y-92516390D02*
X134215286Y-93087819D01*
X134215286Y-93087819D02*
X134834333Y-93087819D01*
X135453381Y-92087819D02*
X135548619Y-92087819D01*
X135548619Y-92087819D02*
X135643857Y-92135438D01*
X135643857Y-92135438D02*
X135691476Y-92183057D01*
X135691476Y-92183057D02*
X135739095Y-92278295D01*
X135739095Y-92278295D02*
X135786714Y-92468771D01*
X135786714Y-92468771D02*
X135786714Y-92706866D01*
X135786714Y-92706866D02*
X135739095Y-92897342D01*
X135739095Y-92897342D02*
X135691476Y-92992580D01*
X135691476Y-92992580D02*
X135643857Y-93040200D01*
X135643857Y-93040200D02*
X135548619Y-93087819D01*
X135548619Y-93087819D02*
X135453381Y-93087819D01*
X135453381Y-93087819D02*
X135358143Y-93040200D01*
X135358143Y-93040200D02*
X135310524Y-92992580D01*
X135310524Y-92992580D02*
X135262905Y-92897342D01*
X135262905Y-92897342D02*
X135215286Y-92706866D01*
X135215286Y-92706866D02*
X135215286Y-92468771D01*
X135215286Y-92468771D02*
X135262905Y-92278295D01*
X135262905Y-92278295D02*
X135310524Y-92183057D01*
X135310524Y-92183057D02*
X135358143Y-92135438D01*
X135358143Y-92135438D02*
X135453381Y-92087819D01*
X136215286Y-92564009D02*
X136548619Y-92564009D01*
X136691476Y-93087819D02*
X136215286Y-93087819D01*
X136215286Y-93087819D02*
X136215286Y-92087819D01*
X136215286Y-92087819D02*
X136691476Y-92087819D01*
D10*
X124722000Y-98113928D02*
X125722000Y-98113928D01*
X125722000Y-98113928D02*
X124722000Y-99613928D01*
X124722000Y-99613928D02*
X125722000Y-99613928D01*
X135489142Y-98828214D02*
X135703428Y-98899642D01*
X135703428Y-98899642D02*
X135774857Y-98971071D01*
X135774857Y-98971071D02*
X135846285Y-99113928D01*
X135846285Y-99113928D02*
X135846285Y-99328214D01*
X135846285Y-99328214D02*
X135774857Y-99471071D01*
X135774857Y-99471071D02*
X135703428Y-99542500D01*
X135703428Y-99542500D02*
X135560571Y-99613928D01*
X135560571Y-99613928D02*
X134989142Y-99613928D01*
X134989142Y-99613928D02*
X134989142Y-98113928D01*
X134989142Y-98113928D02*
X135489142Y-98113928D01*
X135489142Y-98113928D02*
X135632000Y-98185357D01*
X135632000Y-98185357D02*
X135703428Y-98256785D01*
X135703428Y-98256785D02*
X135774857Y-98399642D01*
X135774857Y-98399642D02*
X135774857Y-98542500D01*
X135774857Y-98542500D02*
X135703428Y-98685357D01*
X135703428Y-98685357D02*
X135632000Y-98756785D01*
X135632000Y-98756785D02*
X135489142Y-98828214D01*
X135489142Y-98828214D02*
X134989142Y-98828214D01*
X120142000Y-98899642D02*
X120142000Y-99613928D01*
X119642000Y-98113928D02*
X120142000Y-98899642D01*
X120142000Y-98899642D02*
X120642000Y-98113928D01*
D11*
X121991524Y-96532819D02*
X122562952Y-96532819D01*
X122277238Y-97532819D02*
X122277238Y-96532819D01*
X122801048Y-97532819D02*
X123324857Y-96866152D01*
X122801048Y-96866152D02*
X123324857Y-97532819D01*
X132746761Y-97532819D02*
X132413428Y-97056628D01*
X132175333Y-97532819D02*
X132175333Y-96532819D01*
X132175333Y-96532819D02*
X132556285Y-96532819D01*
X132556285Y-96532819D02*
X132651523Y-96580438D01*
X132651523Y-96580438D02*
X132699142Y-96628057D01*
X132699142Y-96628057D02*
X132746761Y-96723295D01*
X132746761Y-96723295D02*
X132746761Y-96866152D01*
X132746761Y-96866152D02*
X132699142Y-96961390D01*
X132699142Y-96961390D02*
X132651523Y-97009009D01*
X132651523Y-97009009D02*
X132556285Y-97056628D01*
X132556285Y-97056628D02*
X132175333Y-97056628D01*
X133080095Y-97532819D02*
X133603904Y-96866152D01*
X133080095Y-96866152D02*
X133603904Y-97532819D01*
X132508666Y-99022819D02*
X132508666Y-99737104D01*
X132508666Y-99737104D02*
X132461047Y-99879961D01*
X132461047Y-99879961D02*
X132365809Y-99975200D01*
X132365809Y-99975200D02*
X132222952Y-100022819D01*
X132222952Y-100022819D02*
X132127714Y-100022819D01*
X132889619Y-99022819D02*
X133508666Y-99022819D01*
X133508666Y-99022819D02*
X133175333Y-99403771D01*
X133175333Y-99403771D02*
X133318190Y-99403771D01*
X133318190Y-99403771D02*
X133413428Y-99451390D01*
X133413428Y-99451390D02*
X133461047Y-99499009D01*
X133461047Y-99499009D02*
X133508666Y-99594247D01*
X133508666Y-99594247D02*
X133508666Y-99832342D01*
X133508666Y-99832342D02*
X133461047Y-99927580D01*
X133461047Y-99927580D02*
X133413428Y-99975200D01*
X133413428Y-99975200D02*
X133318190Y-100022819D01*
X133318190Y-100022819D02*
X133032476Y-100022819D01*
X133032476Y-100022819D02*
X132937238Y-99975200D01*
X132937238Y-99975200D02*
X132889619Y-99927580D01*
X134667666Y-84417819D02*
X134667666Y-85132104D01*
X134667666Y-85132104D02*
X134620047Y-85274961D01*
X134620047Y-85274961D02*
X134524809Y-85370200D01*
X134524809Y-85370200D02*
X134381952Y-85417819D01*
X134381952Y-85417819D02*
X134286714Y-85417819D01*
X135096238Y-84513057D02*
X135143857Y-84465438D01*
X135143857Y-84465438D02*
X135239095Y-84417819D01*
X135239095Y-84417819D02*
X135477190Y-84417819D01*
X135477190Y-84417819D02*
X135572428Y-84465438D01*
X135572428Y-84465438D02*
X135620047Y-84513057D01*
X135620047Y-84513057D02*
X135667666Y-84608295D01*
X135667666Y-84608295D02*
X135667666Y-84703533D01*
X135667666Y-84703533D02*
X135620047Y-84846390D01*
X135620047Y-84846390D02*
X135048619Y-85417819D01*
X135048619Y-85417819D02*
X135667666Y-85417819D01*
X129119333Y-80115580D02*
X129071714Y-80163200D01*
X129071714Y-80163200D02*
X128928857Y-80210819D01*
X128928857Y-80210819D02*
X128833619Y-80210819D01*
X128833619Y-80210819D02*
X128690762Y-80163200D01*
X128690762Y-80163200D02*
X128595524Y-80067961D01*
X128595524Y-80067961D02*
X128547905Y-79972723D01*
X128547905Y-79972723D02*
X128500286Y-79782247D01*
X128500286Y-79782247D02*
X128500286Y-79639390D01*
X128500286Y-79639390D02*
X128547905Y-79448914D01*
X128547905Y-79448914D02*
X128595524Y-79353676D01*
X128595524Y-79353676D02*
X128690762Y-79258438D01*
X128690762Y-79258438D02*
X128833619Y-79210819D01*
X128833619Y-79210819D02*
X128928857Y-79210819D01*
X128928857Y-79210819D02*
X129071714Y-79258438D01*
X129071714Y-79258438D02*
X129119333Y-79306057D01*
X129976476Y-79544152D02*
X129976476Y-80210819D01*
X129738381Y-79163200D02*
X129500286Y-79877485D01*
X129500286Y-79877485D02*
X130119333Y-79877485D01*
X124293333Y-80115580D02*
X124245714Y-80163200D01*
X124245714Y-80163200D02*
X124102857Y-80210819D01*
X124102857Y-80210819D02*
X124007619Y-80210819D01*
X124007619Y-80210819D02*
X123864762Y-80163200D01*
X123864762Y-80163200D02*
X123769524Y-80067961D01*
X123769524Y-80067961D02*
X123721905Y-79972723D01*
X123721905Y-79972723D02*
X123674286Y-79782247D01*
X123674286Y-79782247D02*
X123674286Y-79639390D01*
X123674286Y-79639390D02*
X123721905Y-79448914D01*
X123721905Y-79448914D02*
X123769524Y-79353676D01*
X123769524Y-79353676D02*
X123864762Y-79258438D01*
X123864762Y-79258438D02*
X124007619Y-79210819D01*
X124007619Y-79210819D02*
X124102857Y-79210819D01*
X124102857Y-79210819D02*
X124245714Y-79258438D01*
X124245714Y-79258438D02*
X124293333Y-79306057D01*
X124626667Y-79210819D02*
X125245714Y-79210819D01*
X125245714Y-79210819D02*
X124912381Y-79591771D01*
X124912381Y-79591771D02*
X125055238Y-79591771D01*
X125055238Y-79591771D02*
X125150476Y-79639390D01*
X125150476Y-79639390D02*
X125198095Y-79687009D01*
X125198095Y-79687009D02*
X125245714Y-79782247D01*
X125245714Y-79782247D02*
X125245714Y-80020342D01*
X125245714Y-80020342D02*
X125198095Y-80115580D01*
X125198095Y-80115580D02*
X125150476Y-80163200D01*
X125150476Y-80163200D02*
X125055238Y-80210819D01*
X125055238Y-80210819D02*
X124769524Y-80210819D01*
X124769524Y-80210819D02*
X124674286Y-80163200D01*
X124674286Y-80163200D02*
X124626667Y-80115580D01*
X124229905Y-78432819D02*
X124229905Y-77432819D01*
X124229905Y-77432819D02*
X124468000Y-77432819D01*
X124468000Y-77432819D02*
X124610857Y-77480438D01*
X124610857Y-77480438D02*
X124706095Y-77575676D01*
X124706095Y-77575676D02*
X124753714Y-77670914D01*
X124753714Y-77670914D02*
X124801333Y-77861390D01*
X124801333Y-77861390D02*
X124801333Y-78004247D01*
X124801333Y-78004247D02*
X124753714Y-78194723D01*
X124753714Y-78194723D02*
X124706095Y-78289961D01*
X124706095Y-78289961D02*
X124610857Y-78385200D01*
X124610857Y-78385200D02*
X124468000Y-78432819D01*
X124468000Y-78432819D02*
X124229905Y-78432819D01*
X125753714Y-78432819D02*
X125182286Y-78432819D01*
X125468000Y-78432819D02*
X125468000Y-77432819D01*
X125468000Y-77432819D02*
X125372762Y-77575676D01*
X125372762Y-77575676D02*
X125277524Y-77670914D01*
X125277524Y-77670914D02*
X125182286Y-77718533D01*
X129817905Y-78432819D02*
X129817905Y-77432819D01*
X129817905Y-77432819D02*
X130056000Y-77432819D01*
X130056000Y-77432819D02*
X130198857Y-77480438D01*
X130198857Y-77480438D02*
X130294095Y-77575676D01*
X130294095Y-77575676D02*
X130341714Y-77670914D01*
X130341714Y-77670914D02*
X130389333Y-77861390D01*
X130389333Y-77861390D02*
X130389333Y-78004247D01*
X130389333Y-78004247D02*
X130341714Y-78194723D01*
X130341714Y-78194723D02*
X130294095Y-78289961D01*
X130294095Y-78289961D02*
X130198857Y-78385200D01*
X130198857Y-78385200D02*
X130056000Y-78432819D01*
X130056000Y-78432819D02*
X129817905Y-78432819D01*
X130770286Y-77528057D02*
X130817905Y-77480438D01*
X130817905Y-77480438D02*
X130913143Y-77432819D01*
X130913143Y-77432819D02*
X131151238Y-77432819D01*
X131151238Y-77432819D02*
X131246476Y-77480438D01*
X131246476Y-77480438D02*
X131294095Y-77528057D01*
X131294095Y-77528057D02*
X131341714Y-77623295D01*
X131341714Y-77623295D02*
X131341714Y-77718533D01*
X131341714Y-77718533D02*
X131294095Y-77861390D01*
X131294095Y-77861390D02*
X130722667Y-78432819D01*
X130722667Y-78432819D02*
X131341714Y-78432819D01*
X123253667Y-72035200D02*
X123396524Y-72082819D01*
X123396524Y-72082819D02*
X123634619Y-72082819D01*
X123634619Y-72082819D02*
X123729857Y-72035200D01*
X123729857Y-72035200D02*
X123777476Y-71987580D01*
X123777476Y-71987580D02*
X123825095Y-71892342D01*
X123825095Y-71892342D02*
X123825095Y-71797104D01*
X123825095Y-71797104D02*
X123777476Y-71701866D01*
X123777476Y-71701866D02*
X123729857Y-71654247D01*
X123729857Y-71654247D02*
X123634619Y-71606628D01*
X123634619Y-71606628D02*
X123444143Y-71559009D01*
X123444143Y-71559009D02*
X123348905Y-71511390D01*
X123348905Y-71511390D02*
X123301286Y-71463771D01*
X123301286Y-71463771D02*
X123253667Y-71368533D01*
X123253667Y-71368533D02*
X123253667Y-71273295D01*
X123253667Y-71273295D02*
X123301286Y-71178057D01*
X123301286Y-71178057D02*
X123348905Y-71130438D01*
X123348905Y-71130438D02*
X123444143Y-71082819D01*
X123444143Y-71082819D02*
X123682238Y-71082819D01*
X123682238Y-71082819D02*
X123825095Y-71130438D01*
X124158429Y-71082819D02*
X124396524Y-72082819D01*
X124396524Y-72082819D02*
X124587000Y-71368533D01*
X124587000Y-71368533D02*
X124777476Y-72082819D01*
X124777476Y-72082819D02*
X125015572Y-71082819D01*
X125920333Y-72082819D02*
X125348905Y-72082819D01*
X125634619Y-72082819D02*
X125634619Y-71082819D01*
X125634619Y-71082819D02*
X125539381Y-71225676D01*
X125539381Y-71225676D02*
X125444143Y-71320914D01*
X125444143Y-71320914D02*
X125348905Y-71368533D01*
X129603667Y-72035200D02*
X129746524Y-72082819D01*
X129746524Y-72082819D02*
X129984619Y-72082819D01*
X129984619Y-72082819D02*
X130079857Y-72035200D01*
X130079857Y-72035200D02*
X130127476Y-71987580D01*
X130127476Y-71987580D02*
X130175095Y-71892342D01*
X130175095Y-71892342D02*
X130175095Y-71797104D01*
X130175095Y-71797104D02*
X130127476Y-71701866D01*
X130127476Y-71701866D02*
X130079857Y-71654247D01*
X130079857Y-71654247D02*
X129984619Y-71606628D01*
X129984619Y-71606628D02*
X129794143Y-71559009D01*
X129794143Y-71559009D02*
X129698905Y-71511390D01*
X129698905Y-71511390D02*
X129651286Y-71463771D01*
X129651286Y-71463771D02*
X129603667Y-71368533D01*
X129603667Y-71368533D02*
X129603667Y-71273295D01*
X129603667Y-71273295D02*
X129651286Y-71178057D01*
X129651286Y-71178057D02*
X129698905Y-71130438D01*
X129698905Y-71130438D02*
X129794143Y-71082819D01*
X129794143Y-71082819D02*
X130032238Y-71082819D01*
X130032238Y-71082819D02*
X130175095Y-71130438D01*
X130508429Y-71082819D02*
X130746524Y-72082819D01*
X130746524Y-72082819D02*
X130937000Y-71368533D01*
X130937000Y-71368533D02*
X131127476Y-72082819D01*
X131127476Y-72082819D02*
X131365572Y-71082819D01*
X131698905Y-71178057D02*
X131746524Y-71130438D01*
X131746524Y-71130438D02*
X131841762Y-71082819D01*
X131841762Y-71082819D02*
X132079857Y-71082819D01*
X132079857Y-71082819D02*
X132175095Y-71130438D01*
X132175095Y-71130438D02*
X132222714Y-71178057D01*
X132222714Y-71178057D02*
X132270333Y-71273295D01*
X132270333Y-71273295D02*
X132270333Y-71368533D01*
X132270333Y-71368533D02*
X132222714Y-71511390D01*
X132222714Y-71511390D02*
X131651286Y-72082819D01*
X131651286Y-72082819D02*
X132270333Y-72082819D01*
X122348666Y-99022819D02*
X122348666Y-99737104D01*
X122348666Y-99737104D02*
X122301047Y-99879961D01*
X122301047Y-99879961D02*
X122205809Y-99975200D01*
X122205809Y-99975200D02*
X122062952Y-100022819D01*
X122062952Y-100022819D02*
X121967714Y-100022819D01*
X123253428Y-99356152D02*
X123253428Y-100022819D01*
X123015333Y-98975200D02*
X122777238Y-99689485D01*
X122777238Y-99689485D02*
X123396285Y-99689485D01*
X118538666Y-65748819D02*
X118538666Y-66463104D01*
X118538666Y-66463104D02*
X118491047Y-66605961D01*
X118491047Y-66605961D02*
X118395809Y-66701200D01*
X118395809Y-66701200D02*
X118252952Y-66748819D01*
X118252952Y-66748819D02*
X118157714Y-66748819D01*
X119538666Y-66748819D02*
X118967238Y-66748819D01*
X119252952Y-66748819D02*
X119252952Y-65748819D01*
X119252952Y-65748819D02*
X119157714Y-65891676D01*
X119157714Y-65891676D02*
X119062476Y-65986914D01*
X119062476Y-65986914D02*
X118967238Y-66034533D01*
X132588095Y-83528819D02*
X132588095Y-84338342D01*
X132588095Y-84338342D02*
X132635714Y-84433580D01*
X132635714Y-84433580D02*
X132683333Y-84481200D01*
X132683333Y-84481200D02*
X132778571Y-84528819D01*
X132778571Y-84528819D02*
X132969047Y-84528819D01*
X132969047Y-84528819D02*
X133064285Y-84481200D01*
X133064285Y-84481200D02*
X133111904Y-84433580D01*
X133111904Y-84433580D02*
X133159523Y-84338342D01*
X133159523Y-84338342D02*
X133159523Y-83528819D01*
X134159523Y-84528819D02*
X133588095Y-84528819D01*
X133873809Y-84528819D02*
X133873809Y-83528819D01*
X133873809Y-83528819D02*
X133778571Y-83671676D01*
X133778571Y-83671676D02*
X133683333Y-83766914D01*
X133683333Y-83766914D02*
X133588095Y-83814533D01*
D12*
X127889000Y-100711000D02*
X127889000Y-109956600D01*
X127889000Y-109956600D02*
X137795000Y-109956600D01*
X137795000Y-100711000D02*
X127889000Y-100711000D01*
X137795000Y-108839000D02*
X127889000Y-108839000D01*
X137795000Y-109956600D02*
X137795000Y-100711000D01*
X136331000Y-91251000D02*
X135001000Y-91251000D01*
X136331000Y-89921000D02*
X136331000Y-91251000D01*
X136331000Y-88651000D02*
X136331000Y-86051000D01*
X136331000Y-88651000D02*
X133671000Y-88651000D01*
X136331000Y-86051000D02*
X133671000Y-86051000D01*
X133671000Y-88651000D02*
X133671000Y-86051000D01*
X129432267Y-81790000D02*
X129139733Y-81790000D01*
X129432267Y-80770000D02*
X129139733Y-80770000D01*
X124606267Y-81790000D02*
X124313733Y-81790000D01*
X124606267Y-80770000D02*
X124313733Y-80770000D01*
X124233000Y-77098000D02*
X125703000Y-77098000D01*
X125703000Y-77098000D02*
X125703000Y-74638000D01*
X124233000Y-74638000D02*
X124233000Y-77098000D01*
X129821000Y-77098000D02*
X131291000Y-77098000D01*
X131291000Y-77098000D02*
X131291000Y-74638000D01*
X129821000Y-74638000D02*
X129821000Y-77098000D01*
X122587000Y-73013000D02*
X122587000Y-79133000D01*
X118967000Y-73013000D02*
X122587000Y-73013000D01*
X122587000Y-79133000D02*
X118967000Y-79133000D01*
X118967000Y-79133000D02*
X118967000Y-73013000D01*
X136557000Y-73013000D02*
X136557000Y-79133000D01*
X132937000Y-73013000D02*
X136557000Y-73013000D01*
X136557000Y-79133000D02*
X132937000Y-79133000D01*
X132937000Y-79133000D02*
X132937000Y-73013000D01*
X117729000Y-100711000D02*
X117729000Y-109956600D01*
X117729000Y-109956600D02*
X127635000Y-109956600D01*
X127635000Y-100711000D02*
X117729000Y-100711000D01*
X127635000Y-108839000D02*
X117729000Y-108839000D01*
X127635000Y-109956600D02*
X127635000Y-100711000D01*
X135382000Y-69088000D02*
X134112000Y-69088000D01*
X135382000Y-69088000D02*
X135382000Y-67818000D01*
X123572000Y-66775071D02*
X123572000Y-66320929D01*
X124332000Y-66775071D02*
X124332000Y-66320929D01*
X126112000Y-66775071D02*
X126112000Y-66320929D01*
X126872000Y-66775071D02*
X126872000Y-66320929D01*
X128652000Y-66775071D02*
X128652000Y-66320929D01*
X129412000Y-66775071D02*
X129412000Y-66320929D01*
X131192000Y-66775071D02*
X131192000Y-66320929D01*
X131952000Y-66775071D02*
X131952000Y-66320929D01*
X133732000Y-66775071D02*
X133732000Y-66320929D01*
X134492000Y-66775071D02*
X134492000Y-66320929D01*
X121032000Y-66708000D02*
X121032000Y-66320929D01*
X121792000Y-66708000D02*
X121792000Y-66320929D01*
X121032000Y-64235071D02*
X121032000Y-63838000D01*
X121792000Y-64235071D02*
X121792000Y-63838000D01*
X123572000Y-64235071D02*
X123572000Y-63838000D01*
X124332000Y-64235071D02*
X124332000Y-63838000D01*
X126112000Y-64235071D02*
X126112000Y-63838000D01*
X126872000Y-64235071D02*
X126872000Y-63838000D01*
X128652000Y-64235071D02*
X128652000Y-63838000D01*
X129412000Y-64235071D02*
X129412000Y-63838000D01*
X131192000Y-64235071D02*
X131192000Y-63838000D01*
X131952000Y-64235071D02*
X131952000Y-63838000D01*
X133732000Y-64235071D02*
X133732000Y-63838000D01*
X134492000Y-64235071D02*
X134492000Y-63838000D01*
X120082000Y-63838000D02*
X135442000Y-63838000D01*
X122682000Y-63838000D02*
X122682000Y-61722000D01*
X125222000Y-63838000D02*
X125222000Y-61722000D01*
X127762000Y-63838000D02*
X127762000Y-61722000D01*
X130302000Y-63838000D02*
X130302000Y-61722000D01*
X132842000Y-63838000D02*
X132842000Y-61722000D01*
X135442000Y-63838000D02*
X135442000Y-61722000D01*
X120082000Y-61722000D02*
X120082000Y-63838000D01*
X135442000Y-61722000D02*
X120082000Y-61722000D01*
X131986000Y-84913000D02*
X131751000Y-84913000D01*
X131751000Y-84913000D02*
X131751000Y-83098000D01*
X118966000Y-84913000D02*
X119201000Y-84913000D01*
X131986000Y-88773000D02*
X131986000Y-84913000D01*
X131986000Y-88773000D02*
X131986000Y-92633000D01*
X118966000Y-88773000D02*
X118966000Y-84913000D01*
X118966000Y-88773000D02*
X118966000Y-92633000D01*
X131986000Y-92633000D02*
X131751000Y-92633000D01*
X118966000Y-92633000D02*
X119201000Y-92633000D01*
%LPC*%
D13*
X130302000Y-105410000D03*
D14*
X135382000Y-105410000D03*
D15*
X135001000Y-89921000D03*
D16*
X135001000Y-87381000D03*
D17*
X130148500Y-81280000D03*
X128423500Y-81280000D03*
X125322500Y-81280000D03*
X123597500Y-81280000D03*
D18*
X124968000Y-76313000D03*
X124968000Y-74563000D03*
X130556000Y-76313000D03*
X130556000Y-74563000D03*
D19*
X120777000Y-71483000D03*
X120777000Y-80663000D03*
X134747000Y-71483000D03*
X134747000Y-80663000D03*
D13*
X120142000Y-105410000D03*
D14*
X125222000Y-105410000D03*
D15*
X134112000Y-67818000D03*
D16*
X134112000Y-65278000D03*
X131572000Y-67818000D03*
X131572000Y-65278000D03*
X129032000Y-67818000D03*
X129032000Y-65278000D03*
X126492000Y-67818000D03*
X126492000Y-65278000D03*
X123952000Y-67818000D03*
X123952000Y-65278000D03*
X121412000Y-67818000D03*
X121412000Y-65278000D03*
D20*
X131191000Y-84123000D03*
X129921000Y-84123000D03*
X128651000Y-84123000D03*
X127381000Y-84123000D03*
X126111000Y-84123000D03*
X124841000Y-84123000D03*
X123571000Y-84123000D03*
X122301000Y-84123000D03*
X121031000Y-84123000D03*
X119761000Y-84123000D03*
X119761000Y-93423000D03*
X121031000Y-93423000D03*
X122301000Y-93423000D03*
X123571000Y-93423000D03*
X124841000Y-93423000D03*
X126111000Y-93423000D03*
X127381000Y-93423000D03*
X128651000Y-93423000D03*
X129921000Y-93423000D03*
X131191000Y-93423000D03*
%LPD*%
M02*
