G04 #@! TF.GenerationSoftware,KiCad,Pcbnew,7.0.9-7.0.9~ubuntu20.04.1*
G04 #@! TF.CreationDate,2023-12-17T15:18:06+01:00*
G04 #@! TF.ProjectId,kicad-pmod_rs485,6b696361-642d-4706-9d6f-645f72733438,rev?*
G04 #@! TF.SameCoordinates,Original*
G04 #@! TF.FileFunction,Paste,Bot*
G04 #@! TF.FilePolarity,Positive*
%FSLAX46Y46*%
G04 Gerber Fmt 4.6, Leading zero omitted, Abs format (unit mm)*
G04 Created by KiCad (PCBNEW 7.0.9-7.0.9~ubuntu20.04.1) date 2023-12-17 15:18:06*
%MOMM*%
%LPD*%
G01*
G04 APERTURE LIST*
G04 Aperture macros list*
%AMRoundRect*
0 Rectangle with rounded corners*
0 $1 Rounding radius*
0 $2 $3 $4 $5 $6 $7 $8 $9 X,Y pos of 4 corners*
0 Add a 4 corners polygon primitive as box body*
4,1,4,$2,$3,$4,$5,$6,$7,$8,$9,$2,$3,0*
0 Add four circle primitives for the rounded corners*
1,1,$1+$1,$2,$3*
1,1,$1+$1,$4,$5*
1,1,$1+$1,$6,$7*
1,1,$1+$1,$8,$9*
0 Add four rect primitives between the rounded corners*
20,1,$1+$1,$2,$3,$4,$5,0*
20,1,$1+$1,$4,$5,$6,$7,0*
20,1,$1+$1,$6,$7,$8,$9,0*
20,1,$1+$1,$8,$9,$2,$3,0*%
G04 Aperture macros list end*
%ADD10RoundRect,0.237500X-0.237500X0.287500X-0.237500X-0.287500X0.237500X-0.287500X0.237500X0.287500X0*%
%ADD11RoundRect,0.237500X-0.250000X-0.237500X0.250000X-0.237500X0.250000X0.237500X-0.250000X0.237500X0*%
%ADD12RoundRect,0.237500X0.300000X0.237500X-0.300000X0.237500X-0.300000X-0.237500X0.300000X-0.237500X0*%
%ADD13RoundRect,0.237500X-0.300000X-0.237500X0.300000X-0.237500X0.300000X0.237500X-0.300000X0.237500X0*%
%ADD14RoundRect,0.237500X0.237500X-0.250000X0.237500X0.250000X-0.237500X0.250000X-0.237500X-0.250000X0*%
%ADD15RoundRect,0.237500X-0.237500X0.250000X-0.237500X-0.250000X0.237500X-0.250000X0.237500X0.250000X0*%
%ADD16RoundRect,0.237500X0.250000X0.237500X-0.250000X0.237500X-0.250000X-0.237500X0.250000X-0.237500X0*%
G04 APERTURE END LIST*
D10*
X119380000Y-96788000D03*
X119380000Y-98538000D03*
D11*
X133834500Y-76811500D03*
X135659500Y-76811500D03*
D12*
X122782500Y-98552000D03*
X121057500Y-98552000D03*
D13*
X129312500Y-96647000D03*
X131037500Y-96647000D03*
D14*
X130048000Y-78636500D03*
X130048000Y-76811500D03*
D15*
X131826000Y-76788000D03*
X131826000Y-78613000D03*
D12*
X122782500Y-96774000D03*
X121057500Y-96774000D03*
X125322500Y-81280000D03*
X123597500Y-81280000D03*
D11*
X133834500Y-78843500D03*
X135659500Y-78843500D03*
D12*
X130148500Y-81280000D03*
X128423500Y-81280000D03*
D13*
X129312500Y-98552000D03*
X131037500Y-98552000D03*
D15*
X123698000Y-76811500D03*
X123698000Y-78636500D03*
D10*
X124460000Y-96774000D03*
X124460000Y-98524000D03*
D16*
X121816500Y-78740000D03*
X119991500Y-78740000D03*
D15*
X125476000Y-76811500D03*
X125476000Y-78636500D03*
D16*
X136167500Y-98679000D03*
X134342500Y-98679000D03*
X136167500Y-96901000D03*
X134342500Y-96901000D03*
X121816500Y-76708000D03*
X119991500Y-76708000D03*
X136167500Y-95123000D03*
X134342500Y-95123000D03*
X136167500Y-100457000D03*
X134342500Y-100457000D03*
M02*
