M48
; DRILL file {KiCad 7.0.9-7.0.9~ubuntu20.04.1} date ned 17 dec 2023 15:18:51
; FORMAT={-:-/ absolute / metric / decimal}
; #@! TF.CreationDate,2023-12-17T15:18:51+01:00
; #@! TF.GenerationSoftware,Kicad,Pcbnew,7.0.9-7.0.9~ubuntu20.04.1
; #@! TF.FileFunction,Plated,1,2,PTH
FMAT,2
METRIC
; #@! TA.AperFunction,Plated,PTH,ViaDrill
T1C0.400
; #@! TA.AperFunction,Plated,PTH,ComponentDrill
T2C1.000
; #@! TA.AperFunction,Plated,PTH,ComponentDrill
T3C1.520
%
G90
G05
T1
X118.364Y-84.074
X119.194Y-95.382
X119.461Y-75.578
X120.396Y-86.36
X121.031Y-95.055
X121.412Y-62.738
X121.92Y-74.168
X123.682Y-73.896
X123.952Y-80.264
X124.231Y-82.371
X124.53Y-77.686
X124.714Y-72.644
X128.423Y-80.116
X129.921Y-95.099
X129.951Y-82.427
X130.556Y-72.644
X131.03Y-95.55
X132.694Y-79.457
X134.112Y-62.738
X135.21Y-75.654
T2
X121.412Y-65.278
X121.412Y-67.818
X123.952Y-65.278
X123.952Y-67.818
X126.492Y-65.278
X126.492Y-67.818
X129.032Y-65.278
X129.032Y-67.818
X131.572Y-65.278
X131.572Y-67.818
X134.112Y-65.278
X134.112Y-67.818
X135.001Y-87.381
X135.001Y-89.921
T3
X120.142Y-105.41
X125.222Y-105.41
X130.302Y-105.41
X135.382Y-105.41
T0
M30
