G04 #@! TF.GenerationSoftware,KiCad,Pcbnew,7.0.9-7.0.9~ubuntu20.04.1*
G04 #@! TF.CreationDate,2023-12-17T15:18:06+01:00*
G04 #@! TF.ProjectId,kicad-pmod_rs485,6b696361-642d-4706-9d6f-645f72733438,rev?*
G04 #@! TF.SameCoordinates,Original*
G04 #@! TF.FileFunction,Legend,Bot*
G04 #@! TF.FilePolarity,Positive*
%FSLAX46Y46*%
G04 Gerber Fmt 4.6, Leading zero omitted, Abs format (unit mm)*
G04 Created by KiCad (PCBNEW 7.0.9-7.0.9~ubuntu20.04.1) date 2023-12-17 15:18:06*
%MOMM*%
%LPD*%
G01*
G04 APERTURE LIST*
G04 Aperture macros list*
%AMRoundRect*
0 Rectangle with rounded corners*
0 $1 Rounding radius*
0 $2 $3 $4 $5 $6 $7 $8 $9 X,Y pos of 4 corners*
0 Add a 4 corners polygon primitive as box body*
4,1,4,$2,$3,$4,$5,$6,$7,$8,$9,$2,$3,0*
0 Add four circle primitives for the rounded corners*
1,1,$1+$1,$2,$3*
1,1,$1+$1,$4,$5*
1,1,$1+$1,$6,$7*
1,1,$1+$1,$8,$9*
0 Add four rect primitives between the rounded corners*
20,1,$1+$1,$2,$3,$4,$5,0*
20,1,$1+$1,$4,$5,$6,$7,0*
20,1,$1+$1,$6,$7,$8,$9,0*
20,1,$1+$1,$8,$9,$2,$3,0*%
G04 Aperture macros list end*
%ADD10C,0.100000*%
%ADD11C,0.180000*%
%ADD12C,0.150000*%
%ADD13C,0.120000*%
%ADD14R,3.000000X3.000000*%
%ADD15C,3.000000*%
%ADD16R,1.700000X1.700000*%
%ADD17O,1.700000X1.700000*%
%ADD18RoundRect,0.237500X-0.237500X0.287500X-0.237500X-0.287500X0.237500X-0.287500X0.237500X0.287500X0*%
%ADD19RoundRect,0.237500X-0.250000X-0.237500X0.250000X-0.237500X0.250000X0.237500X-0.250000X0.237500X0*%
%ADD20RoundRect,0.237500X0.300000X0.237500X-0.300000X0.237500X-0.300000X-0.237500X0.300000X-0.237500X0*%
%ADD21RoundRect,0.237500X-0.300000X-0.237500X0.300000X-0.237500X0.300000X0.237500X-0.300000X0.237500X0*%
%ADD22RoundRect,0.237500X0.237500X-0.250000X0.237500X0.250000X-0.237500X0.250000X-0.237500X-0.250000X0*%
%ADD23RoundRect,0.237500X-0.237500X0.250000X-0.237500X-0.250000X0.237500X-0.250000X0.237500X0.250000X0*%
%ADD24RoundRect,0.237500X0.250000X0.237500X-0.250000X0.237500X-0.250000X-0.237500X0.250000X-0.237500X0*%
G04 APERTURE END LIST*
D10*
X120976895Y-69268074D02*
X120976895Y-69763312D01*
X120976895Y-69763312D02*
X121281657Y-69496646D01*
X121281657Y-69496646D02*
X121281657Y-69610931D01*
X121281657Y-69610931D02*
X121319752Y-69687122D01*
X121319752Y-69687122D02*
X121357847Y-69725217D01*
X121357847Y-69725217D02*
X121434038Y-69763312D01*
X121434038Y-69763312D02*
X121624514Y-69763312D01*
X121624514Y-69763312D02*
X121700704Y-69725217D01*
X121700704Y-69725217D02*
X121738800Y-69687122D01*
X121738800Y-69687122D02*
X121776895Y-69610931D01*
X121776895Y-69610931D02*
X121776895Y-69382360D01*
X121776895Y-69382360D02*
X121738800Y-69306169D01*
X121738800Y-69306169D02*
X121700704Y-69268074D01*
X120976895Y-69991884D02*
X121776895Y-70258551D01*
X121776895Y-70258551D02*
X120976895Y-70525217D01*
X120976895Y-70715693D02*
X120976895Y-71210931D01*
X120976895Y-71210931D02*
X121281657Y-70944265D01*
X121281657Y-70944265D02*
X121281657Y-71058550D01*
X121281657Y-71058550D02*
X121319752Y-71134741D01*
X121319752Y-71134741D02*
X121357847Y-71172836D01*
X121357847Y-71172836D02*
X121434038Y-71210931D01*
X121434038Y-71210931D02*
X121624514Y-71210931D01*
X121624514Y-71210931D02*
X121700704Y-71172836D01*
X121700704Y-71172836D02*
X121738800Y-71134741D01*
X121738800Y-71134741D02*
X121776895Y-71058550D01*
X121776895Y-71058550D02*
X121776895Y-70829979D01*
X121776895Y-70829979D02*
X121738800Y-70753788D01*
X121738800Y-70753788D02*
X121700704Y-70715693D01*
X126856895Y-71884265D02*
X126056895Y-71884265D01*
X126056895Y-71884265D02*
X126056895Y-72074741D01*
X126056895Y-72074741D02*
X126094990Y-72189027D01*
X126094990Y-72189027D02*
X126171180Y-72265217D01*
X126171180Y-72265217D02*
X126247371Y-72303312D01*
X126247371Y-72303312D02*
X126399752Y-72341408D01*
X126399752Y-72341408D02*
X126514038Y-72341408D01*
X126514038Y-72341408D02*
X126666419Y-72303312D01*
X126666419Y-72303312D02*
X126742609Y-72265217D01*
X126742609Y-72265217D02*
X126818800Y-72189027D01*
X126818800Y-72189027D02*
X126856895Y-72074741D01*
X126856895Y-72074741D02*
X126856895Y-71884265D01*
X126437847Y-72684265D02*
X126437847Y-72950931D01*
X126856895Y-73065217D02*
X126856895Y-72684265D01*
X126856895Y-72684265D02*
X126056895Y-72684265D01*
X126056895Y-72684265D02*
X126056895Y-73065217D01*
X131136895Y-71769979D02*
X131136895Y-72227122D01*
X131936895Y-71998550D02*
X131136895Y-71998550D01*
X131936895Y-72417598D02*
X131403561Y-72836646D01*
X131403561Y-72417598D02*
X131936895Y-72836646D01*
X131936895Y-73484265D02*
X131136895Y-73484265D01*
X131898800Y-73484265D02*
X131936895Y-73408074D01*
X131936895Y-73408074D02*
X131936895Y-73255693D01*
X131936895Y-73255693D02*
X131898800Y-73179503D01*
X131898800Y-73179503D02*
X131860704Y-73141408D01*
X131860704Y-73141408D02*
X131784514Y-73103312D01*
X131784514Y-73103312D02*
X131555942Y-73103312D01*
X131555942Y-73103312D02*
X131479752Y-73141408D01*
X131479752Y-73141408D02*
X131441657Y-73179503D01*
X131441657Y-73179503D02*
X131403561Y-73255693D01*
X131403561Y-73255693D02*
X131403561Y-73408074D01*
X131403561Y-73408074D02*
X131441657Y-73484265D01*
X120976895Y-71808074D02*
X120976895Y-72303312D01*
X120976895Y-72303312D02*
X121281657Y-72036646D01*
X121281657Y-72036646D02*
X121281657Y-72150931D01*
X121281657Y-72150931D02*
X121319752Y-72227122D01*
X121319752Y-72227122D02*
X121357847Y-72265217D01*
X121357847Y-72265217D02*
X121434038Y-72303312D01*
X121434038Y-72303312D02*
X121624514Y-72303312D01*
X121624514Y-72303312D02*
X121700704Y-72265217D01*
X121700704Y-72265217D02*
X121738800Y-72227122D01*
X121738800Y-72227122D02*
X121776895Y-72150931D01*
X121776895Y-72150931D02*
X121776895Y-71922360D01*
X121776895Y-71922360D02*
X121738800Y-71846169D01*
X121738800Y-71846169D02*
X121700704Y-71808074D01*
X120976895Y-72531884D02*
X121776895Y-72798551D01*
X121776895Y-72798551D02*
X120976895Y-73065217D01*
X120976895Y-73255693D02*
X120976895Y-73750931D01*
X120976895Y-73750931D02*
X121281657Y-73484265D01*
X121281657Y-73484265D02*
X121281657Y-73598550D01*
X121281657Y-73598550D02*
X121319752Y-73674741D01*
X121319752Y-73674741D02*
X121357847Y-73712836D01*
X121357847Y-73712836D02*
X121434038Y-73750931D01*
X121434038Y-73750931D02*
X121624514Y-73750931D01*
X121624514Y-73750931D02*
X121700704Y-73712836D01*
X121700704Y-73712836D02*
X121738800Y-73674741D01*
X121738800Y-73674741D02*
X121776895Y-73598550D01*
X121776895Y-73598550D02*
X121776895Y-73369979D01*
X121776895Y-73369979D02*
X121738800Y-73293788D01*
X121738800Y-73293788D02*
X121700704Y-73255693D01*
X134476895Y-69458550D02*
X134438800Y-69382360D01*
X134438800Y-69382360D02*
X134362609Y-69344265D01*
X134362609Y-69344265D02*
X133676895Y-69344265D01*
X134476895Y-70106170D02*
X133676895Y-70106170D01*
X134438800Y-70106170D02*
X134476895Y-70029979D01*
X134476895Y-70029979D02*
X134476895Y-69877598D01*
X134476895Y-69877598D02*
X134438800Y-69801408D01*
X134438800Y-69801408D02*
X134400704Y-69763313D01*
X134400704Y-69763313D02*
X134324514Y-69725217D01*
X134324514Y-69725217D02*
X134095942Y-69725217D01*
X134095942Y-69725217D02*
X134019752Y-69763313D01*
X134019752Y-69763313D02*
X133981657Y-69801408D01*
X133981657Y-69801408D02*
X133943561Y-69877598D01*
X133943561Y-69877598D02*
X133943561Y-70029979D01*
X133943561Y-70029979D02*
X133981657Y-70106170D01*
X134476895Y-70906170D02*
X134476895Y-70449027D01*
X134476895Y-70677599D02*
X133676895Y-70677599D01*
X133676895Y-70677599D02*
X133791180Y-70601408D01*
X133791180Y-70601408D02*
X133867371Y-70525218D01*
X133867371Y-70525218D02*
X133905466Y-70449027D01*
X126856895Y-69344265D02*
X126056895Y-69344265D01*
X126361657Y-69344265D02*
X126323561Y-69420455D01*
X126323561Y-69420455D02*
X126323561Y-69572836D01*
X126323561Y-69572836D02*
X126361657Y-69649027D01*
X126361657Y-69649027D02*
X126399752Y-69687122D01*
X126399752Y-69687122D02*
X126475942Y-69725217D01*
X126475942Y-69725217D02*
X126704514Y-69725217D01*
X126704514Y-69725217D02*
X126780704Y-69687122D01*
X126780704Y-69687122D02*
X126818800Y-69649027D01*
X126818800Y-69649027D02*
X126856895Y-69572836D01*
X126856895Y-69572836D02*
X126856895Y-69420455D01*
X126856895Y-69420455D02*
X126818800Y-69344265D01*
X126323561Y-69953789D02*
X126323561Y-70258551D01*
X126056895Y-70068075D02*
X126742609Y-70068075D01*
X126742609Y-70068075D02*
X126818800Y-70106170D01*
X126818800Y-70106170D02*
X126856895Y-70182360D01*
X126856895Y-70182360D02*
X126856895Y-70258551D01*
X126133085Y-70487122D02*
X126094990Y-70525218D01*
X126094990Y-70525218D02*
X126056895Y-70601408D01*
X126056895Y-70601408D02*
X126056895Y-70791884D01*
X126056895Y-70791884D02*
X126094990Y-70868075D01*
X126094990Y-70868075D02*
X126133085Y-70906170D01*
X126133085Y-70906170D02*
X126209276Y-70944265D01*
X126209276Y-70944265D02*
X126285466Y-70944265D01*
X126285466Y-70944265D02*
X126399752Y-70906170D01*
X126399752Y-70906170D02*
X126856895Y-70449027D01*
X126856895Y-70449027D02*
X126856895Y-70944265D01*
X134476895Y-72341408D02*
X134095942Y-72074741D01*
X134476895Y-71884265D02*
X133676895Y-71884265D01*
X133676895Y-71884265D02*
X133676895Y-72189027D01*
X133676895Y-72189027D02*
X133714990Y-72265217D01*
X133714990Y-72265217D02*
X133753085Y-72303312D01*
X133753085Y-72303312D02*
X133829276Y-72341408D01*
X133829276Y-72341408D02*
X133943561Y-72341408D01*
X133943561Y-72341408D02*
X134019752Y-72303312D01*
X134019752Y-72303312D02*
X134057847Y-72265217D01*
X134057847Y-72265217D02*
X134095942Y-72189027D01*
X134095942Y-72189027D02*
X134095942Y-71884265D01*
X134057847Y-72684265D02*
X134057847Y-72950931D01*
X134476895Y-73065217D02*
X134476895Y-72684265D01*
X134476895Y-72684265D02*
X133676895Y-72684265D01*
X133676895Y-72684265D02*
X133676895Y-73065217D01*
X133943561Y-73408075D02*
X134476895Y-73408075D01*
X134019752Y-73408075D02*
X133981657Y-73446170D01*
X133981657Y-73446170D02*
X133943561Y-73522360D01*
X133943561Y-73522360D02*
X133943561Y-73636646D01*
X133943561Y-73636646D02*
X133981657Y-73712837D01*
X133981657Y-73712837D02*
X134057847Y-73750932D01*
X134057847Y-73750932D02*
X134476895Y-73750932D01*
X129396895Y-72341408D02*
X129015942Y-72074741D01*
X129396895Y-71884265D02*
X128596895Y-71884265D01*
X128596895Y-71884265D02*
X128596895Y-72189027D01*
X128596895Y-72189027D02*
X128634990Y-72265217D01*
X128634990Y-72265217D02*
X128673085Y-72303312D01*
X128673085Y-72303312D02*
X128749276Y-72341408D01*
X128749276Y-72341408D02*
X128863561Y-72341408D01*
X128863561Y-72341408D02*
X128939752Y-72303312D01*
X128939752Y-72303312D02*
X128977847Y-72265217D01*
X128977847Y-72265217D02*
X129015942Y-72189027D01*
X129015942Y-72189027D02*
X129015942Y-71884265D01*
X129396895Y-72608074D02*
X128863561Y-73027122D01*
X128863561Y-72608074D02*
X129396895Y-73027122D01*
X129396895Y-73674741D02*
X128596895Y-73674741D01*
X129358800Y-73674741D02*
X129396895Y-73598550D01*
X129396895Y-73598550D02*
X129396895Y-73446169D01*
X129396895Y-73446169D02*
X129358800Y-73369979D01*
X129358800Y-73369979D02*
X129320704Y-73331884D01*
X129320704Y-73331884D02*
X129244514Y-73293788D01*
X129244514Y-73293788D02*
X129015942Y-73293788D01*
X129015942Y-73293788D02*
X128939752Y-73331884D01*
X128939752Y-73331884D02*
X128901657Y-73369979D01*
X128901657Y-73369979D02*
X128863561Y-73446169D01*
X128863561Y-73446169D02*
X128863561Y-73598550D01*
X128863561Y-73598550D02*
X128901657Y-73674741D01*
X123554990Y-69763312D02*
X123516895Y-69687122D01*
X123516895Y-69687122D02*
X123516895Y-69572836D01*
X123516895Y-69572836D02*
X123554990Y-69458550D01*
X123554990Y-69458550D02*
X123631180Y-69382360D01*
X123631180Y-69382360D02*
X123707371Y-69344265D01*
X123707371Y-69344265D02*
X123859752Y-69306169D01*
X123859752Y-69306169D02*
X123974038Y-69306169D01*
X123974038Y-69306169D02*
X124126419Y-69344265D01*
X124126419Y-69344265D02*
X124202609Y-69382360D01*
X124202609Y-69382360D02*
X124278800Y-69458550D01*
X124278800Y-69458550D02*
X124316895Y-69572836D01*
X124316895Y-69572836D02*
X124316895Y-69649027D01*
X124316895Y-69649027D02*
X124278800Y-69763312D01*
X124278800Y-69763312D02*
X124240704Y-69801408D01*
X124240704Y-69801408D02*
X123974038Y-69801408D01*
X123974038Y-69801408D02*
X123974038Y-69649027D01*
X123783561Y-70144265D02*
X124316895Y-70144265D01*
X123859752Y-70144265D02*
X123821657Y-70182360D01*
X123821657Y-70182360D02*
X123783561Y-70258550D01*
X123783561Y-70258550D02*
X123783561Y-70372836D01*
X123783561Y-70372836D02*
X123821657Y-70449027D01*
X123821657Y-70449027D02*
X123897847Y-70487122D01*
X123897847Y-70487122D02*
X124316895Y-70487122D01*
X124316895Y-71210932D02*
X123516895Y-71210932D01*
X124278800Y-71210932D02*
X124316895Y-71134741D01*
X124316895Y-71134741D02*
X124316895Y-70982360D01*
X124316895Y-70982360D02*
X124278800Y-70906170D01*
X124278800Y-70906170D02*
X124240704Y-70868075D01*
X124240704Y-70868075D02*
X124164514Y-70829979D01*
X124164514Y-70829979D02*
X123935942Y-70829979D01*
X123935942Y-70829979D02*
X123859752Y-70868075D01*
X123859752Y-70868075D02*
X123821657Y-70906170D01*
X123821657Y-70906170D02*
X123783561Y-70982360D01*
X123783561Y-70982360D02*
X123783561Y-71134741D01*
X123783561Y-71134741D02*
X123821657Y-71210932D01*
D11*
X130978475Y-90297020D02*
X131345142Y-89773211D01*
X131607047Y-90297020D02*
X131607047Y-89197020D01*
X131607047Y-89197020D02*
X131187999Y-89197020D01*
X131187999Y-89197020D02*
X131083237Y-89249401D01*
X131083237Y-89249401D02*
X131030856Y-89301782D01*
X131030856Y-89301782D02*
X130978475Y-89406544D01*
X130978475Y-89406544D02*
X130978475Y-89563687D01*
X130978475Y-89563687D02*
X131030856Y-89668449D01*
X131030856Y-89668449D02*
X131083237Y-89720830D01*
X131083237Y-89720830D02*
X131187999Y-89773211D01*
X131187999Y-89773211D02*
X131607047Y-89773211D01*
X130559428Y-90244640D02*
X130402285Y-90297020D01*
X130402285Y-90297020D02*
X130140380Y-90297020D01*
X130140380Y-90297020D02*
X130035618Y-90244640D01*
X130035618Y-90244640D02*
X129983237Y-90192259D01*
X129983237Y-90192259D02*
X129930856Y-90087497D01*
X129930856Y-90087497D02*
X129930856Y-89982735D01*
X129930856Y-89982735D02*
X129983237Y-89877973D01*
X129983237Y-89877973D02*
X130035618Y-89825592D01*
X130035618Y-89825592D02*
X130140380Y-89773211D01*
X130140380Y-89773211D02*
X130349904Y-89720830D01*
X130349904Y-89720830D02*
X130454666Y-89668449D01*
X130454666Y-89668449D02*
X130507047Y-89616068D01*
X130507047Y-89616068D02*
X130559428Y-89511306D01*
X130559428Y-89511306D02*
X130559428Y-89406544D01*
X130559428Y-89406544D02*
X130507047Y-89301782D01*
X130507047Y-89301782D02*
X130454666Y-89249401D01*
X130454666Y-89249401D02*
X130349904Y-89197020D01*
X130349904Y-89197020D02*
X130087999Y-89197020D01*
X130087999Y-89197020D02*
X129930856Y-89249401D01*
X128987999Y-89563687D02*
X128987999Y-90297020D01*
X129249904Y-89144640D02*
X129511809Y-89930354D01*
X129511809Y-89930354D02*
X128830856Y-89930354D01*
X128254666Y-89668449D02*
X128359428Y-89616068D01*
X128359428Y-89616068D02*
X128411809Y-89563687D01*
X128411809Y-89563687D02*
X128464190Y-89458925D01*
X128464190Y-89458925D02*
X128464190Y-89406544D01*
X128464190Y-89406544D02*
X128411809Y-89301782D01*
X128411809Y-89301782D02*
X128359428Y-89249401D01*
X128359428Y-89249401D02*
X128254666Y-89197020D01*
X128254666Y-89197020D02*
X128045142Y-89197020D01*
X128045142Y-89197020D02*
X127940380Y-89249401D01*
X127940380Y-89249401D02*
X127887999Y-89301782D01*
X127887999Y-89301782D02*
X127835618Y-89406544D01*
X127835618Y-89406544D02*
X127835618Y-89458925D01*
X127835618Y-89458925D02*
X127887999Y-89563687D01*
X127887999Y-89563687D02*
X127940380Y-89616068D01*
X127940380Y-89616068D02*
X128045142Y-89668449D01*
X128045142Y-89668449D02*
X128254666Y-89668449D01*
X128254666Y-89668449D02*
X128359428Y-89720830D01*
X128359428Y-89720830D02*
X128411809Y-89773211D01*
X128411809Y-89773211D02*
X128464190Y-89877973D01*
X128464190Y-89877973D02*
X128464190Y-90087497D01*
X128464190Y-90087497D02*
X128411809Y-90192259D01*
X128411809Y-90192259D02*
X128359428Y-90244640D01*
X128359428Y-90244640D02*
X128254666Y-90297020D01*
X128254666Y-90297020D02*
X128045142Y-90297020D01*
X128045142Y-90297020D02*
X127940380Y-90244640D01*
X127940380Y-90244640D02*
X127887999Y-90192259D01*
X127887999Y-90192259D02*
X127835618Y-90087497D01*
X127835618Y-90087497D02*
X127835618Y-89877973D01*
X127835618Y-89877973D02*
X127887999Y-89773211D01*
X127887999Y-89773211D02*
X127940380Y-89720830D01*
X127940380Y-89720830D02*
X128045142Y-89668449D01*
X126840380Y-89197020D02*
X127364190Y-89197020D01*
X127364190Y-89197020D02*
X127416571Y-89720830D01*
X127416571Y-89720830D02*
X127364190Y-89668449D01*
X127364190Y-89668449D02*
X127259428Y-89616068D01*
X127259428Y-89616068D02*
X126997523Y-89616068D01*
X126997523Y-89616068D02*
X126892761Y-89668449D01*
X126892761Y-89668449D02*
X126840380Y-89720830D01*
X126840380Y-89720830D02*
X126787999Y-89825592D01*
X126787999Y-89825592D02*
X126787999Y-90087497D01*
X126787999Y-90087497D02*
X126840380Y-90192259D01*
X126840380Y-90192259D02*
X126892761Y-90244640D01*
X126892761Y-90244640D02*
X126997523Y-90297020D01*
X126997523Y-90297020D02*
X127259428Y-90297020D01*
X127259428Y-90297020D02*
X127364190Y-90244640D01*
X127364190Y-90244640D02*
X127416571Y-90192259D01*
X126316571Y-89877973D02*
X125478476Y-89877973D01*
X124954666Y-90297020D02*
X124954666Y-89197020D01*
X124954666Y-89197020D02*
X124535618Y-89197020D01*
X124535618Y-89197020D02*
X124430856Y-89249401D01*
X124430856Y-89249401D02*
X124378475Y-89301782D01*
X124378475Y-89301782D02*
X124326094Y-89406544D01*
X124326094Y-89406544D02*
X124326094Y-89563687D01*
X124326094Y-89563687D02*
X124378475Y-89668449D01*
X124378475Y-89668449D02*
X124430856Y-89720830D01*
X124430856Y-89720830D02*
X124535618Y-89773211D01*
X124535618Y-89773211D02*
X124954666Y-89773211D01*
X123854666Y-90297020D02*
X123854666Y-89197020D01*
X123854666Y-89197020D02*
X123487999Y-89982735D01*
X123487999Y-89982735D02*
X123121332Y-89197020D01*
X123121332Y-89197020D02*
X123121332Y-90297020D01*
X122387999Y-89197020D02*
X122178475Y-89197020D01*
X122178475Y-89197020D02*
X122073713Y-89249401D01*
X122073713Y-89249401D02*
X121968951Y-89354163D01*
X121968951Y-89354163D02*
X121916570Y-89563687D01*
X121916570Y-89563687D02*
X121916570Y-89930354D01*
X121916570Y-89930354D02*
X121968951Y-90139878D01*
X121968951Y-90139878D02*
X122073713Y-90244640D01*
X122073713Y-90244640D02*
X122178475Y-90297020D01*
X122178475Y-90297020D02*
X122387999Y-90297020D01*
X122387999Y-90297020D02*
X122492761Y-90244640D01*
X122492761Y-90244640D02*
X122597523Y-90139878D01*
X122597523Y-90139878D02*
X122649904Y-89930354D01*
X122649904Y-89930354D02*
X122649904Y-89563687D01*
X122649904Y-89563687D02*
X122597523Y-89354163D01*
X122597523Y-89354163D02*
X122492761Y-89249401D01*
X122492761Y-89249401D02*
X122387999Y-89197020D01*
X121445142Y-90297020D02*
X121445142Y-89197020D01*
X121445142Y-89197020D02*
X121183237Y-89197020D01*
X121183237Y-89197020D02*
X121026094Y-89249401D01*
X121026094Y-89249401D02*
X120921332Y-89354163D01*
X120921332Y-89354163D02*
X120868951Y-89458925D01*
X120868951Y-89458925D02*
X120816570Y-89668449D01*
X120816570Y-89668449D02*
X120816570Y-89825592D01*
X120816570Y-89825592D02*
X120868951Y-90035116D01*
X120868951Y-90035116D02*
X120921332Y-90139878D01*
X120921332Y-90139878D02*
X121026094Y-90244640D01*
X121026094Y-90244640D02*
X121183237Y-90297020D01*
X121183237Y-90297020D02*
X121445142Y-90297020D01*
X131580856Y-92068020D02*
X132209428Y-92068020D01*
X131895142Y-92068020D02*
X131895142Y-90968020D01*
X131895142Y-90968020D02*
X131999904Y-91125163D01*
X131999904Y-91125163D02*
X132104666Y-91229925D01*
X132104666Y-91229925D02*
X132209428Y-91282306D01*
X131109428Y-91963259D02*
X131057047Y-92015640D01*
X131057047Y-92015640D02*
X131109428Y-92068020D01*
X131109428Y-92068020D02*
X131161809Y-92015640D01*
X131161809Y-92015640D02*
X131109428Y-91963259D01*
X131109428Y-91963259D02*
X131109428Y-92068020D01*
X130376094Y-90968020D02*
X130271332Y-90968020D01*
X130271332Y-90968020D02*
X130166570Y-91020401D01*
X130166570Y-91020401D02*
X130114189Y-91072782D01*
X130114189Y-91072782D02*
X130061808Y-91177544D01*
X130061808Y-91177544D02*
X130009427Y-91387068D01*
X130009427Y-91387068D02*
X130009427Y-91648973D01*
X130009427Y-91648973D02*
X130061808Y-91858497D01*
X130061808Y-91858497D02*
X130114189Y-91963259D01*
X130114189Y-91963259D02*
X130166570Y-92015640D01*
X130166570Y-92015640D02*
X130271332Y-92068020D01*
X130271332Y-92068020D02*
X130376094Y-92068020D01*
X130376094Y-92068020D02*
X130480856Y-92015640D01*
X130480856Y-92015640D02*
X130533237Y-91963259D01*
X130533237Y-91963259D02*
X130585618Y-91858497D01*
X130585618Y-91858497D02*
X130637999Y-91648973D01*
X130637999Y-91648973D02*
X130637999Y-91387068D01*
X130637999Y-91387068D02*
X130585618Y-91177544D01*
X130585618Y-91177544D02*
X130533237Y-91072782D01*
X130533237Y-91072782D02*
X130480856Y-91020401D01*
X130480856Y-91020401D02*
X130376094Y-90968020D01*
X129537999Y-91648973D02*
X128699904Y-91648973D01*
X128228475Y-91072782D02*
X128176094Y-91020401D01*
X128176094Y-91020401D02*
X128071332Y-90968020D01*
X128071332Y-90968020D02*
X127809427Y-90968020D01*
X127809427Y-90968020D02*
X127704665Y-91020401D01*
X127704665Y-91020401D02*
X127652284Y-91072782D01*
X127652284Y-91072782D02*
X127599903Y-91177544D01*
X127599903Y-91177544D02*
X127599903Y-91282306D01*
X127599903Y-91282306D02*
X127652284Y-91439449D01*
X127652284Y-91439449D02*
X128280856Y-92068020D01*
X128280856Y-92068020D02*
X127599903Y-92068020D01*
X126918951Y-90968020D02*
X126814189Y-90968020D01*
X126814189Y-90968020D02*
X126709427Y-91020401D01*
X126709427Y-91020401D02*
X126657046Y-91072782D01*
X126657046Y-91072782D02*
X126604665Y-91177544D01*
X126604665Y-91177544D02*
X126552284Y-91387068D01*
X126552284Y-91387068D02*
X126552284Y-91648973D01*
X126552284Y-91648973D02*
X126604665Y-91858497D01*
X126604665Y-91858497D02*
X126657046Y-91963259D01*
X126657046Y-91963259D02*
X126709427Y-92015640D01*
X126709427Y-92015640D02*
X126814189Y-92068020D01*
X126814189Y-92068020D02*
X126918951Y-92068020D01*
X126918951Y-92068020D02*
X127023713Y-92015640D01*
X127023713Y-92015640D02*
X127076094Y-91963259D01*
X127076094Y-91963259D02*
X127128475Y-91858497D01*
X127128475Y-91858497D02*
X127180856Y-91648973D01*
X127180856Y-91648973D02*
X127180856Y-91387068D01*
X127180856Y-91387068D02*
X127128475Y-91177544D01*
X127128475Y-91177544D02*
X127076094Y-91072782D01*
X127076094Y-91072782D02*
X127023713Y-91020401D01*
X127023713Y-91020401D02*
X126918951Y-90968020D01*
X126133237Y-91072782D02*
X126080856Y-91020401D01*
X126080856Y-91020401D02*
X125976094Y-90968020D01*
X125976094Y-90968020D02*
X125714189Y-90968020D01*
X125714189Y-90968020D02*
X125609427Y-91020401D01*
X125609427Y-91020401D02*
X125557046Y-91072782D01*
X125557046Y-91072782D02*
X125504665Y-91177544D01*
X125504665Y-91177544D02*
X125504665Y-91282306D01*
X125504665Y-91282306D02*
X125557046Y-91439449D01*
X125557046Y-91439449D02*
X126185618Y-92068020D01*
X126185618Y-92068020D02*
X125504665Y-92068020D01*
X125137999Y-90968020D02*
X124457046Y-90968020D01*
X124457046Y-90968020D02*
X124823713Y-91387068D01*
X124823713Y-91387068D02*
X124666570Y-91387068D01*
X124666570Y-91387068D02*
X124561808Y-91439449D01*
X124561808Y-91439449D02*
X124509427Y-91491830D01*
X124509427Y-91491830D02*
X124457046Y-91596592D01*
X124457046Y-91596592D02*
X124457046Y-91858497D01*
X124457046Y-91858497D02*
X124509427Y-91963259D01*
X124509427Y-91963259D02*
X124561808Y-92015640D01*
X124561808Y-92015640D02*
X124666570Y-92068020D01*
X124666570Y-92068020D02*
X124980856Y-92068020D01*
X124980856Y-92068020D02*
X125085618Y-92015640D01*
X125085618Y-92015640D02*
X125137999Y-91963259D01*
X123409427Y-92068020D02*
X124037999Y-92068020D01*
X123723713Y-92068020D02*
X123723713Y-90968020D01*
X123723713Y-90968020D02*
X123828475Y-91125163D01*
X123828475Y-91125163D02*
X123933237Y-91229925D01*
X123933237Y-91229925D02*
X124037999Y-91282306D01*
X122990380Y-91072782D02*
X122937999Y-91020401D01*
X122937999Y-91020401D02*
X122833237Y-90968020D01*
X122833237Y-90968020D02*
X122571332Y-90968020D01*
X122571332Y-90968020D02*
X122466570Y-91020401D01*
X122466570Y-91020401D02*
X122414189Y-91072782D01*
X122414189Y-91072782D02*
X122361808Y-91177544D01*
X122361808Y-91177544D02*
X122361808Y-91282306D01*
X122361808Y-91282306D02*
X122414189Y-91439449D01*
X122414189Y-91439449D02*
X123042761Y-92068020D01*
X123042761Y-92068020D02*
X122361808Y-92068020D01*
X121314189Y-92068020D02*
X121942761Y-92068020D01*
X121628475Y-92068020D02*
X121628475Y-90968020D01*
X121628475Y-90968020D02*
X121733237Y-91125163D01*
X121733237Y-91125163D02*
X121837999Y-91229925D01*
X121837999Y-91229925D02*
X121942761Y-91282306D01*
X120947523Y-90968020D02*
X120214189Y-90968020D01*
X120214189Y-90968020D02*
X120685618Y-92068020D01*
X128752285Y-93786640D02*
X128595142Y-93839020D01*
X128595142Y-93839020D02*
X128333237Y-93839020D01*
X128333237Y-93839020D02*
X128228475Y-93786640D01*
X128228475Y-93786640D02*
X128176094Y-93734259D01*
X128176094Y-93734259D02*
X128123713Y-93629497D01*
X128123713Y-93629497D02*
X128123713Y-93524735D01*
X128123713Y-93524735D02*
X128176094Y-93419973D01*
X128176094Y-93419973D02*
X128228475Y-93367592D01*
X128228475Y-93367592D02*
X128333237Y-93315211D01*
X128333237Y-93315211D02*
X128542761Y-93262830D01*
X128542761Y-93262830D02*
X128647523Y-93210449D01*
X128647523Y-93210449D02*
X128699904Y-93158068D01*
X128699904Y-93158068D02*
X128752285Y-93053306D01*
X128752285Y-93053306D02*
X128752285Y-92948544D01*
X128752285Y-92948544D02*
X128699904Y-92843782D01*
X128699904Y-92843782D02*
X128647523Y-92791401D01*
X128647523Y-92791401D02*
X128542761Y-92739020D01*
X128542761Y-92739020D02*
X128280856Y-92739020D01*
X128280856Y-92739020D02*
X128123713Y-92791401D01*
X127128475Y-92739020D02*
X127652285Y-92739020D01*
X127652285Y-92739020D02*
X127704666Y-93262830D01*
X127704666Y-93262830D02*
X127652285Y-93210449D01*
X127652285Y-93210449D02*
X127547523Y-93158068D01*
X127547523Y-93158068D02*
X127285618Y-93158068D01*
X127285618Y-93158068D02*
X127180856Y-93210449D01*
X127180856Y-93210449D02*
X127128475Y-93262830D01*
X127128475Y-93262830D02*
X127076094Y-93367592D01*
X127076094Y-93367592D02*
X127076094Y-93629497D01*
X127076094Y-93629497D02*
X127128475Y-93734259D01*
X127128475Y-93734259D02*
X127180856Y-93786640D01*
X127180856Y-93786640D02*
X127285618Y-93839020D01*
X127285618Y-93839020D02*
X127547523Y-93839020D01*
X127547523Y-93839020D02*
X127652285Y-93786640D01*
X127652285Y-93786640D02*
X127704666Y-93734259D01*
X126552285Y-93839020D02*
X126342761Y-93839020D01*
X126342761Y-93839020D02*
X126237999Y-93786640D01*
X126237999Y-93786640D02*
X126185618Y-93734259D01*
X126185618Y-93734259D02*
X126080856Y-93577116D01*
X126080856Y-93577116D02*
X126028475Y-93367592D01*
X126028475Y-93367592D02*
X126028475Y-92948544D01*
X126028475Y-92948544D02*
X126080856Y-92843782D01*
X126080856Y-92843782D02*
X126133237Y-92791401D01*
X126133237Y-92791401D02*
X126237999Y-92739020D01*
X126237999Y-92739020D02*
X126447523Y-92739020D01*
X126447523Y-92739020D02*
X126552285Y-92791401D01*
X126552285Y-92791401D02*
X126604666Y-92843782D01*
X126604666Y-92843782D02*
X126657047Y-92948544D01*
X126657047Y-92948544D02*
X126657047Y-93210449D01*
X126657047Y-93210449D02*
X126604666Y-93315211D01*
X126604666Y-93315211D02*
X126552285Y-93367592D01*
X126552285Y-93367592D02*
X126447523Y-93419973D01*
X126447523Y-93419973D02*
X126237999Y-93419973D01*
X126237999Y-93419973D02*
X126133237Y-93367592D01*
X126133237Y-93367592D02*
X126080856Y-93315211D01*
X126080856Y-93315211D02*
X126028475Y-93210449D01*
X125557047Y-93839020D02*
X125557047Y-92739020D01*
X125557047Y-92739020D02*
X125190380Y-93524735D01*
X125190380Y-93524735D02*
X124823713Y-92739020D01*
X124823713Y-92739020D02*
X124823713Y-93839020D01*
X124404666Y-92739020D02*
X123671332Y-92739020D01*
X123671332Y-92739020D02*
X124404666Y-93839020D01*
X124404666Y-93839020D02*
X123671332Y-93839020D01*
D10*
X123554990Y-72303312D02*
X123516895Y-72227122D01*
X123516895Y-72227122D02*
X123516895Y-72112836D01*
X123516895Y-72112836D02*
X123554990Y-71998550D01*
X123554990Y-71998550D02*
X123631180Y-71922360D01*
X123631180Y-71922360D02*
X123707371Y-71884265D01*
X123707371Y-71884265D02*
X123859752Y-71846169D01*
X123859752Y-71846169D02*
X123974038Y-71846169D01*
X123974038Y-71846169D02*
X124126419Y-71884265D01*
X124126419Y-71884265D02*
X124202609Y-71922360D01*
X124202609Y-71922360D02*
X124278800Y-71998550D01*
X124278800Y-71998550D02*
X124316895Y-72112836D01*
X124316895Y-72112836D02*
X124316895Y-72189027D01*
X124316895Y-72189027D02*
X124278800Y-72303312D01*
X124278800Y-72303312D02*
X124240704Y-72341408D01*
X124240704Y-72341408D02*
X123974038Y-72341408D01*
X123974038Y-72341408D02*
X123974038Y-72189027D01*
X123783561Y-72684265D02*
X124316895Y-72684265D01*
X123859752Y-72684265D02*
X123821657Y-72722360D01*
X123821657Y-72722360D02*
X123783561Y-72798550D01*
X123783561Y-72798550D02*
X123783561Y-72912836D01*
X123783561Y-72912836D02*
X123821657Y-72989027D01*
X123821657Y-72989027D02*
X123897847Y-73027122D01*
X123897847Y-73027122D02*
X124316895Y-73027122D01*
X124316895Y-73750932D02*
X123516895Y-73750932D01*
X124278800Y-73750932D02*
X124316895Y-73674741D01*
X124316895Y-73674741D02*
X124316895Y-73522360D01*
X124316895Y-73522360D02*
X124278800Y-73446170D01*
X124278800Y-73446170D02*
X124240704Y-73408075D01*
X124240704Y-73408075D02*
X124164514Y-73369979D01*
X124164514Y-73369979D02*
X123935942Y-73369979D01*
X123935942Y-73369979D02*
X123859752Y-73408075D01*
X123859752Y-73408075D02*
X123821657Y-73446170D01*
X123821657Y-73446170D02*
X123783561Y-73522360D01*
X123783561Y-73522360D02*
X123783561Y-73674741D01*
X123783561Y-73674741D02*
X123821657Y-73750932D01*
X129396895Y-69344265D02*
X128596895Y-69344265D01*
X128901657Y-69344265D02*
X128863561Y-69420455D01*
X128863561Y-69420455D02*
X128863561Y-69572836D01*
X128863561Y-69572836D02*
X128901657Y-69649027D01*
X128901657Y-69649027D02*
X128939752Y-69687122D01*
X128939752Y-69687122D02*
X129015942Y-69725217D01*
X129015942Y-69725217D02*
X129244514Y-69725217D01*
X129244514Y-69725217D02*
X129320704Y-69687122D01*
X129320704Y-69687122D02*
X129358800Y-69649027D01*
X129358800Y-69649027D02*
X129396895Y-69572836D01*
X129396895Y-69572836D02*
X129396895Y-69420455D01*
X129396895Y-69420455D02*
X129358800Y-69344265D01*
X128863561Y-69953789D02*
X128863561Y-70258551D01*
X128596895Y-70068075D02*
X129282609Y-70068075D01*
X129282609Y-70068075D02*
X129358800Y-70106170D01*
X129358800Y-70106170D02*
X129396895Y-70182360D01*
X129396895Y-70182360D02*
X129396895Y-70258551D01*
X129396895Y-70944265D02*
X129396895Y-70487122D01*
X129396895Y-70715694D02*
X128596895Y-70715694D01*
X128596895Y-70715694D02*
X128711180Y-70639503D01*
X128711180Y-70639503D02*
X128787371Y-70563313D01*
X128787371Y-70563313D02*
X128825466Y-70487122D01*
X131936895Y-69458550D02*
X131898800Y-69382360D01*
X131898800Y-69382360D02*
X131822609Y-69344265D01*
X131822609Y-69344265D02*
X131136895Y-69344265D01*
X131936895Y-70106170D02*
X131136895Y-70106170D01*
X131898800Y-70106170D02*
X131936895Y-70029979D01*
X131936895Y-70029979D02*
X131936895Y-69877598D01*
X131936895Y-69877598D02*
X131898800Y-69801408D01*
X131898800Y-69801408D02*
X131860704Y-69763313D01*
X131860704Y-69763313D02*
X131784514Y-69725217D01*
X131784514Y-69725217D02*
X131555942Y-69725217D01*
X131555942Y-69725217D02*
X131479752Y-69763313D01*
X131479752Y-69763313D02*
X131441657Y-69801408D01*
X131441657Y-69801408D02*
X131403561Y-69877598D01*
X131403561Y-69877598D02*
X131403561Y-70029979D01*
X131403561Y-70029979D02*
X131441657Y-70106170D01*
X131213085Y-70449027D02*
X131174990Y-70487123D01*
X131174990Y-70487123D02*
X131136895Y-70563313D01*
X131136895Y-70563313D02*
X131136895Y-70753789D01*
X131136895Y-70753789D02*
X131174990Y-70829980D01*
X131174990Y-70829980D02*
X131213085Y-70868075D01*
X131213085Y-70868075D02*
X131289276Y-70906170D01*
X131289276Y-70906170D02*
X131365466Y-70906170D01*
X131365466Y-70906170D02*
X131479752Y-70868075D01*
X131479752Y-70868075D02*
X131936895Y-70410932D01*
X131936895Y-70410932D02*
X131936895Y-70906170D01*
D12*
X119311009Y-100004666D02*
X119311009Y-99671333D01*
X119834819Y-99671333D02*
X118834819Y-99671333D01*
X118834819Y-99671333D02*
X118834819Y-100147523D01*
X119311009Y-100861809D02*
X119358628Y-101004666D01*
X119358628Y-101004666D02*
X119406247Y-101052285D01*
X119406247Y-101052285D02*
X119501485Y-101099904D01*
X119501485Y-101099904D02*
X119644342Y-101099904D01*
X119644342Y-101099904D02*
X119739580Y-101052285D01*
X119739580Y-101052285D02*
X119787200Y-101004666D01*
X119787200Y-101004666D02*
X119834819Y-100909428D01*
X119834819Y-100909428D02*
X119834819Y-100528476D01*
X119834819Y-100528476D02*
X118834819Y-100528476D01*
X118834819Y-100528476D02*
X118834819Y-100861809D01*
X118834819Y-100861809D02*
X118882438Y-100957047D01*
X118882438Y-100957047D02*
X118930057Y-101004666D01*
X118930057Y-101004666D02*
X119025295Y-101052285D01*
X119025295Y-101052285D02*
X119120533Y-101052285D01*
X119120533Y-101052285D02*
X119215771Y-101004666D01*
X119215771Y-101004666D02*
X119263390Y-100957047D01*
X119263390Y-100957047D02*
X119311009Y-100861809D01*
X119311009Y-100861809D02*
X119311009Y-100528476D01*
X118930057Y-101480857D02*
X118882438Y-101528476D01*
X118882438Y-101528476D02*
X118834819Y-101623714D01*
X118834819Y-101623714D02*
X118834819Y-101861809D01*
X118834819Y-101861809D02*
X118882438Y-101957047D01*
X118882438Y-101957047D02*
X118930057Y-102004666D01*
X118930057Y-102004666D02*
X119025295Y-102052285D01*
X119025295Y-102052285D02*
X119120533Y-102052285D01*
X119120533Y-102052285D02*
X119263390Y-102004666D01*
X119263390Y-102004666D02*
X119834819Y-101433238D01*
X119834819Y-101433238D02*
X119834819Y-102052285D01*
X134913666Y-75638819D02*
X135246999Y-75162628D01*
X135485094Y-75638819D02*
X135485094Y-74638819D01*
X135485094Y-74638819D02*
X135104142Y-74638819D01*
X135104142Y-74638819D02*
X135008904Y-74686438D01*
X135008904Y-74686438D02*
X134961285Y-74734057D01*
X134961285Y-74734057D02*
X134913666Y-74829295D01*
X134913666Y-74829295D02*
X134913666Y-74972152D01*
X134913666Y-74972152D02*
X134961285Y-75067390D01*
X134961285Y-75067390D02*
X135008904Y-75115009D01*
X135008904Y-75115009D02*
X135104142Y-75162628D01*
X135104142Y-75162628D02*
X135485094Y-75162628D01*
X134056523Y-74972152D02*
X134056523Y-75638819D01*
X134294618Y-74591200D02*
X134532713Y-75305485D01*
X134532713Y-75305485D02*
X133913666Y-75305485D01*
X122086666Y-100435580D02*
X122134285Y-100483200D01*
X122134285Y-100483200D02*
X122277142Y-100530819D01*
X122277142Y-100530819D02*
X122372380Y-100530819D01*
X122372380Y-100530819D02*
X122515237Y-100483200D01*
X122515237Y-100483200D02*
X122610475Y-100387961D01*
X122610475Y-100387961D02*
X122658094Y-100292723D01*
X122658094Y-100292723D02*
X122705713Y-100102247D01*
X122705713Y-100102247D02*
X122705713Y-99959390D01*
X122705713Y-99959390D02*
X122658094Y-99768914D01*
X122658094Y-99768914D02*
X122610475Y-99673676D01*
X122610475Y-99673676D02*
X122515237Y-99578438D01*
X122515237Y-99578438D02*
X122372380Y-99530819D01*
X122372380Y-99530819D02*
X122277142Y-99530819D01*
X122277142Y-99530819D02*
X122134285Y-99578438D01*
X122134285Y-99578438D02*
X122086666Y-99626057D01*
X121515237Y-99959390D02*
X121610475Y-99911771D01*
X121610475Y-99911771D02*
X121658094Y-99864152D01*
X121658094Y-99864152D02*
X121705713Y-99768914D01*
X121705713Y-99768914D02*
X121705713Y-99721295D01*
X121705713Y-99721295D02*
X121658094Y-99626057D01*
X121658094Y-99626057D02*
X121610475Y-99578438D01*
X121610475Y-99578438D02*
X121515237Y-99530819D01*
X121515237Y-99530819D02*
X121324761Y-99530819D01*
X121324761Y-99530819D02*
X121229523Y-99578438D01*
X121229523Y-99578438D02*
X121181904Y-99626057D01*
X121181904Y-99626057D02*
X121134285Y-99721295D01*
X121134285Y-99721295D02*
X121134285Y-99768914D01*
X121134285Y-99768914D02*
X121181904Y-99864152D01*
X121181904Y-99864152D02*
X121229523Y-99911771D01*
X121229523Y-99911771D02*
X121324761Y-99959390D01*
X121324761Y-99959390D02*
X121515237Y-99959390D01*
X121515237Y-99959390D02*
X121610475Y-100007009D01*
X121610475Y-100007009D02*
X121658094Y-100054628D01*
X121658094Y-100054628D02*
X121705713Y-100149866D01*
X121705713Y-100149866D02*
X121705713Y-100340342D01*
X121705713Y-100340342D02*
X121658094Y-100435580D01*
X121658094Y-100435580D02*
X121610475Y-100483200D01*
X121610475Y-100483200D02*
X121515237Y-100530819D01*
X121515237Y-100530819D02*
X121324761Y-100530819D01*
X121324761Y-100530819D02*
X121229523Y-100483200D01*
X121229523Y-100483200D02*
X121181904Y-100435580D01*
X121181904Y-100435580D02*
X121134285Y-100340342D01*
X121134285Y-100340342D02*
X121134285Y-100149866D01*
X121134285Y-100149866D02*
X121181904Y-100054628D01*
X121181904Y-100054628D02*
X121229523Y-100007009D01*
X121229523Y-100007009D02*
X121324761Y-99959390D01*
X130341666Y-95609580D02*
X130389285Y-95657200D01*
X130389285Y-95657200D02*
X130532142Y-95704819D01*
X130532142Y-95704819D02*
X130627380Y-95704819D01*
X130627380Y-95704819D02*
X130770237Y-95657200D01*
X130770237Y-95657200D02*
X130865475Y-95561961D01*
X130865475Y-95561961D02*
X130913094Y-95466723D01*
X130913094Y-95466723D02*
X130960713Y-95276247D01*
X130960713Y-95276247D02*
X130960713Y-95133390D01*
X130960713Y-95133390D02*
X130913094Y-94942914D01*
X130913094Y-94942914D02*
X130865475Y-94847676D01*
X130865475Y-94847676D02*
X130770237Y-94752438D01*
X130770237Y-94752438D02*
X130627380Y-94704819D01*
X130627380Y-94704819D02*
X130532142Y-94704819D01*
X130532142Y-94704819D02*
X130389285Y-94752438D01*
X130389285Y-94752438D02*
X130341666Y-94800057D01*
X129436904Y-94704819D02*
X129913094Y-94704819D01*
X129913094Y-94704819D02*
X129960713Y-95181009D01*
X129960713Y-95181009D02*
X129913094Y-95133390D01*
X129913094Y-95133390D02*
X129817856Y-95085771D01*
X129817856Y-95085771D02*
X129579761Y-95085771D01*
X129579761Y-95085771D02*
X129484523Y-95133390D01*
X129484523Y-95133390D02*
X129436904Y-95181009D01*
X129436904Y-95181009D02*
X129389285Y-95276247D01*
X129389285Y-95276247D02*
X129389285Y-95514342D01*
X129389285Y-95514342D02*
X129436904Y-95609580D01*
X129436904Y-95609580D02*
X129484523Y-95657200D01*
X129484523Y-95657200D02*
X129579761Y-95704819D01*
X129579761Y-95704819D02*
X129817856Y-95704819D01*
X129817856Y-95704819D02*
X129913094Y-95657200D01*
X129913094Y-95657200D02*
X129960713Y-95609580D01*
X128978819Y-77081142D02*
X128502628Y-76747809D01*
X128978819Y-76509714D02*
X127978819Y-76509714D01*
X127978819Y-76509714D02*
X127978819Y-76890666D01*
X127978819Y-76890666D02*
X128026438Y-76985904D01*
X128026438Y-76985904D02*
X128074057Y-77033523D01*
X128074057Y-77033523D02*
X128169295Y-77081142D01*
X128169295Y-77081142D02*
X128312152Y-77081142D01*
X128312152Y-77081142D02*
X128407390Y-77033523D01*
X128407390Y-77033523D02*
X128455009Y-76985904D01*
X128455009Y-76985904D02*
X128502628Y-76890666D01*
X128502628Y-76890666D02*
X128502628Y-76509714D01*
X128978819Y-78033523D02*
X128978819Y-77462095D01*
X128978819Y-77747809D02*
X127978819Y-77747809D01*
X127978819Y-77747809D02*
X128121676Y-77652571D01*
X128121676Y-77652571D02*
X128216914Y-77557333D01*
X128216914Y-77557333D02*
X128264533Y-77462095D01*
X127978819Y-78652571D02*
X127978819Y-78747809D01*
X127978819Y-78747809D02*
X128026438Y-78843047D01*
X128026438Y-78843047D02*
X128074057Y-78890666D01*
X128074057Y-78890666D02*
X128169295Y-78938285D01*
X128169295Y-78938285D02*
X128359771Y-78985904D01*
X128359771Y-78985904D02*
X128597866Y-78985904D01*
X128597866Y-78985904D02*
X128788342Y-78938285D01*
X128788342Y-78938285D02*
X128883580Y-78890666D01*
X128883580Y-78890666D02*
X128931200Y-78843047D01*
X128931200Y-78843047D02*
X128978819Y-78747809D01*
X128978819Y-78747809D02*
X128978819Y-78652571D01*
X128978819Y-78652571D02*
X128931200Y-78557333D01*
X128931200Y-78557333D02*
X128883580Y-78509714D01*
X128883580Y-78509714D02*
X128788342Y-78462095D01*
X128788342Y-78462095D02*
X128597866Y-78414476D01*
X128597866Y-78414476D02*
X128359771Y-78414476D01*
X128359771Y-78414476D02*
X128169295Y-78462095D01*
X128169295Y-78462095D02*
X128074057Y-78509714D01*
X128074057Y-78509714D02*
X128026438Y-78557333D01*
X128026438Y-78557333D02*
X127978819Y-78652571D01*
X132468857Y-75638819D02*
X132802190Y-75162628D01*
X133040285Y-75638819D02*
X133040285Y-74638819D01*
X133040285Y-74638819D02*
X132659333Y-74638819D01*
X132659333Y-74638819D02*
X132564095Y-74686438D01*
X132564095Y-74686438D02*
X132516476Y-74734057D01*
X132516476Y-74734057D02*
X132468857Y-74829295D01*
X132468857Y-74829295D02*
X132468857Y-74972152D01*
X132468857Y-74972152D02*
X132516476Y-75067390D01*
X132516476Y-75067390D02*
X132564095Y-75115009D01*
X132564095Y-75115009D02*
X132659333Y-75162628D01*
X132659333Y-75162628D02*
X133040285Y-75162628D01*
X131516476Y-75638819D02*
X132087904Y-75638819D01*
X131802190Y-75638819D02*
X131802190Y-74638819D01*
X131802190Y-74638819D02*
X131897428Y-74781676D01*
X131897428Y-74781676D02*
X131992666Y-74876914D01*
X131992666Y-74876914D02*
X132087904Y-74924533D01*
X131135523Y-74734057D02*
X131087904Y-74686438D01*
X131087904Y-74686438D02*
X130992666Y-74638819D01*
X130992666Y-74638819D02*
X130754571Y-74638819D01*
X130754571Y-74638819D02*
X130659333Y-74686438D01*
X130659333Y-74686438D02*
X130611714Y-74734057D01*
X130611714Y-74734057D02*
X130564095Y-74829295D01*
X130564095Y-74829295D02*
X130564095Y-74924533D01*
X130564095Y-74924533D02*
X130611714Y-75067390D01*
X130611714Y-75067390D02*
X131183142Y-75638819D01*
X131183142Y-75638819D02*
X130564095Y-75638819D01*
X122086666Y-95703580D02*
X122134285Y-95751200D01*
X122134285Y-95751200D02*
X122277142Y-95798819D01*
X122277142Y-95798819D02*
X122372380Y-95798819D01*
X122372380Y-95798819D02*
X122515237Y-95751200D01*
X122515237Y-95751200D02*
X122610475Y-95655961D01*
X122610475Y-95655961D02*
X122658094Y-95560723D01*
X122658094Y-95560723D02*
X122705713Y-95370247D01*
X122705713Y-95370247D02*
X122705713Y-95227390D01*
X122705713Y-95227390D02*
X122658094Y-95036914D01*
X122658094Y-95036914D02*
X122610475Y-94941676D01*
X122610475Y-94941676D02*
X122515237Y-94846438D01*
X122515237Y-94846438D02*
X122372380Y-94798819D01*
X122372380Y-94798819D02*
X122277142Y-94798819D01*
X122277142Y-94798819D02*
X122134285Y-94846438D01*
X122134285Y-94846438D02*
X122086666Y-94894057D01*
X121229523Y-94798819D02*
X121419999Y-94798819D01*
X121419999Y-94798819D02*
X121515237Y-94846438D01*
X121515237Y-94846438D02*
X121562856Y-94894057D01*
X121562856Y-94894057D02*
X121658094Y-95036914D01*
X121658094Y-95036914D02*
X121705713Y-95227390D01*
X121705713Y-95227390D02*
X121705713Y-95608342D01*
X121705713Y-95608342D02*
X121658094Y-95703580D01*
X121658094Y-95703580D02*
X121610475Y-95751200D01*
X121610475Y-95751200D02*
X121515237Y-95798819D01*
X121515237Y-95798819D02*
X121324761Y-95798819D01*
X121324761Y-95798819D02*
X121229523Y-95751200D01*
X121229523Y-95751200D02*
X121181904Y-95703580D01*
X121181904Y-95703580D02*
X121134285Y-95608342D01*
X121134285Y-95608342D02*
X121134285Y-95370247D01*
X121134285Y-95370247D02*
X121181904Y-95275009D01*
X121181904Y-95275009D02*
X121229523Y-95227390D01*
X121229523Y-95227390D02*
X121324761Y-95179771D01*
X121324761Y-95179771D02*
X121515237Y-95179771D01*
X121515237Y-95179771D02*
X121610475Y-95227390D01*
X121610475Y-95227390D02*
X121658094Y-95275009D01*
X121658094Y-95275009D02*
X121705713Y-95370247D01*
X124626666Y-83163580D02*
X124674285Y-83211200D01*
X124674285Y-83211200D02*
X124817142Y-83258819D01*
X124817142Y-83258819D02*
X124912380Y-83258819D01*
X124912380Y-83258819D02*
X125055237Y-83211200D01*
X125055237Y-83211200D02*
X125150475Y-83115961D01*
X125150475Y-83115961D02*
X125198094Y-83020723D01*
X125198094Y-83020723D02*
X125245713Y-82830247D01*
X125245713Y-82830247D02*
X125245713Y-82687390D01*
X125245713Y-82687390D02*
X125198094Y-82496914D01*
X125198094Y-82496914D02*
X125150475Y-82401676D01*
X125150475Y-82401676D02*
X125055237Y-82306438D01*
X125055237Y-82306438D02*
X124912380Y-82258819D01*
X124912380Y-82258819D02*
X124817142Y-82258819D01*
X124817142Y-82258819D02*
X124674285Y-82306438D01*
X124674285Y-82306438D02*
X124626666Y-82354057D01*
X123674285Y-83258819D02*
X124245713Y-83258819D01*
X123959999Y-83258819D02*
X123959999Y-82258819D01*
X123959999Y-82258819D02*
X124055237Y-82401676D01*
X124055237Y-82401676D02*
X124150475Y-82496914D01*
X124150475Y-82496914D02*
X124245713Y-82544533D01*
X134913666Y-80728319D02*
X135246999Y-80252128D01*
X135485094Y-80728319D02*
X135485094Y-79728319D01*
X135485094Y-79728319D02*
X135104142Y-79728319D01*
X135104142Y-79728319D02*
X135008904Y-79775938D01*
X135008904Y-79775938D02*
X134961285Y-79823557D01*
X134961285Y-79823557D02*
X134913666Y-79918795D01*
X134913666Y-79918795D02*
X134913666Y-80061652D01*
X134913666Y-80061652D02*
X134961285Y-80156890D01*
X134961285Y-80156890D02*
X135008904Y-80204509D01*
X135008904Y-80204509D02*
X135104142Y-80252128D01*
X135104142Y-80252128D02*
X135485094Y-80252128D01*
X134580332Y-79728319D02*
X133961285Y-79728319D01*
X133961285Y-79728319D02*
X134294618Y-80109271D01*
X134294618Y-80109271D02*
X134151761Y-80109271D01*
X134151761Y-80109271D02*
X134056523Y-80156890D01*
X134056523Y-80156890D02*
X134008904Y-80204509D01*
X134008904Y-80204509D02*
X133961285Y-80299747D01*
X133961285Y-80299747D02*
X133961285Y-80537842D01*
X133961285Y-80537842D02*
X134008904Y-80633080D01*
X134008904Y-80633080D02*
X134056523Y-80680700D01*
X134056523Y-80680700D02*
X134151761Y-80728319D01*
X134151761Y-80728319D02*
X134437475Y-80728319D01*
X134437475Y-80728319D02*
X134532713Y-80680700D01*
X134532713Y-80680700D02*
X134580332Y-80633080D01*
X129452666Y-83163580D02*
X129500285Y-83211200D01*
X129500285Y-83211200D02*
X129643142Y-83258819D01*
X129643142Y-83258819D02*
X129738380Y-83258819D01*
X129738380Y-83258819D02*
X129881237Y-83211200D01*
X129881237Y-83211200D02*
X129976475Y-83115961D01*
X129976475Y-83115961D02*
X130024094Y-83020723D01*
X130024094Y-83020723D02*
X130071713Y-82830247D01*
X130071713Y-82830247D02*
X130071713Y-82687390D01*
X130071713Y-82687390D02*
X130024094Y-82496914D01*
X130024094Y-82496914D02*
X129976475Y-82401676D01*
X129976475Y-82401676D02*
X129881237Y-82306438D01*
X129881237Y-82306438D02*
X129738380Y-82258819D01*
X129738380Y-82258819D02*
X129643142Y-82258819D01*
X129643142Y-82258819D02*
X129500285Y-82306438D01*
X129500285Y-82306438D02*
X129452666Y-82354057D01*
X129071713Y-82354057D02*
X129024094Y-82306438D01*
X129024094Y-82306438D02*
X128928856Y-82258819D01*
X128928856Y-82258819D02*
X128690761Y-82258819D01*
X128690761Y-82258819D02*
X128595523Y-82306438D01*
X128595523Y-82306438D02*
X128547904Y-82354057D01*
X128547904Y-82354057D02*
X128500285Y-82449295D01*
X128500285Y-82449295D02*
X128500285Y-82544533D01*
X128500285Y-82544533D02*
X128547904Y-82687390D01*
X128547904Y-82687390D02*
X129119332Y-83258819D01*
X129119332Y-83258819D02*
X128500285Y-83258819D01*
X130341666Y-100435580D02*
X130389285Y-100483200D01*
X130389285Y-100483200D02*
X130532142Y-100530819D01*
X130532142Y-100530819D02*
X130627380Y-100530819D01*
X130627380Y-100530819D02*
X130770237Y-100483200D01*
X130770237Y-100483200D02*
X130865475Y-100387961D01*
X130865475Y-100387961D02*
X130913094Y-100292723D01*
X130913094Y-100292723D02*
X130960713Y-100102247D01*
X130960713Y-100102247D02*
X130960713Y-99959390D01*
X130960713Y-99959390D02*
X130913094Y-99768914D01*
X130913094Y-99768914D02*
X130865475Y-99673676D01*
X130865475Y-99673676D02*
X130770237Y-99578438D01*
X130770237Y-99578438D02*
X130627380Y-99530819D01*
X130627380Y-99530819D02*
X130532142Y-99530819D01*
X130532142Y-99530819D02*
X130389285Y-99578438D01*
X130389285Y-99578438D02*
X130341666Y-99626057D01*
X130008332Y-99530819D02*
X129341666Y-99530819D01*
X129341666Y-99530819D02*
X129770237Y-100530819D01*
X123864666Y-75638819D02*
X124197999Y-75162628D01*
X124436094Y-75638819D02*
X124436094Y-74638819D01*
X124436094Y-74638819D02*
X124055142Y-74638819D01*
X124055142Y-74638819D02*
X123959904Y-74686438D01*
X123959904Y-74686438D02*
X123912285Y-74734057D01*
X123912285Y-74734057D02*
X123864666Y-74829295D01*
X123864666Y-74829295D02*
X123864666Y-74972152D01*
X123864666Y-74972152D02*
X123912285Y-75067390D01*
X123912285Y-75067390D02*
X123959904Y-75115009D01*
X123959904Y-75115009D02*
X124055142Y-75162628D01*
X124055142Y-75162628D02*
X124436094Y-75162628D01*
X123388475Y-75638819D02*
X123197999Y-75638819D01*
X123197999Y-75638819D02*
X123102761Y-75591200D01*
X123102761Y-75591200D02*
X123055142Y-75543580D01*
X123055142Y-75543580D02*
X122959904Y-75400723D01*
X122959904Y-75400723D02*
X122912285Y-75210247D01*
X122912285Y-75210247D02*
X122912285Y-74829295D01*
X122912285Y-74829295D02*
X122959904Y-74734057D01*
X122959904Y-74734057D02*
X123007523Y-74686438D01*
X123007523Y-74686438D02*
X123102761Y-74638819D01*
X123102761Y-74638819D02*
X123293237Y-74638819D01*
X123293237Y-74638819D02*
X123388475Y-74686438D01*
X123388475Y-74686438D02*
X123436094Y-74734057D01*
X123436094Y-74734057D02*
X123483713Y-74829295D01*
X123483713Y-74829295D02*
X123483713Y-75067390D01*
X123483713Y-75067390D02*
X123436094Y-75162628D01*
X123436094Y-75162628D02*
X123388475Y-75210247D01*
X123388475Y-75210247D02*
X123293237Y-75257866D01*
X123293237Y-75257866D02*
X123102761Y-75257866D01*
X123102761Y-75257866D02*
X123007523Y-75210247D01*
X123007523Y-75210247D02*
X122959904Y-75162628D01*
X122959904Y-75162628D02*
X122912285Y-75067390D01*
X125915009Y-96815666D02*
X125915009Y-96482333D01*
X126438819Y-96482333D02*
X125438819Y-96482333D01*
X125438819Y-96482333D02*
X125438819Y-96958523D01*
X125915009Y-97672809D02*
X125962628Y-97815666D01*
X125962628Y-97815666D02*
X126010247Y-97863285D01*
X126010247Y-97863285D02*
X126105485Y-97910904D01*
X126105485Y-97910904D02*
X126248342Y-97910904D01*
X126248342Y-97910904D02*
X126343580Y-97863285D01*
X126343580Y-97863285D02*
X126391200Y-97815666D01*
X126391200Y-97815666D02*
X126438819Y-97720428D01*
X126438819Y-97720428D02*
X126438819Y-97339476D01*
X126438819Y-97339476D02*
X125438819Y-97339476D01*
X125438819Y-97339476D02*
X125438819Y-97672809D01*
X125438819Y-97672809D02*
X125486438Y-97768047D01*
X125486438Y-97768047D02*
X125534057Y-97815666D01*
X125534057Y-97815666D02*
X125629295Y-97863285D01*
X125629295Y-97863285D02*
X125724533Y-97863285D01*
X125724533Y-97863285D02*
X125819771Y-97815666D01*
X125819771Y-97815666D02*
X125867390Y-97768047D01*
X125867390Y-97768047D02*
X125915009Y-97672809D01*
X125915009Y-97672809D02*
X125915009Y-97339476D01*
X126438819Y-98863285D02*
X126438819Y-98291857D01*
X126438819Y-98577571D02*
X125438819Y-98577571D01*
X125438819Y-98577571D02*
X125581676Y-98482333D01*
X125581676Y-98482333D02*
X125676914Y-98387095D01*
X125676914Y-98387095D02*
X125724533Y-98291857D01*
X121070666Y-80718819D02*
X121403999Y-80242628D01*
X121642094Y-80718819D02*
X121642094Y-79718819D01*
X121642094Y-79718819D02*
X121261142Y-79718819D01*
X121261142Y-79718819D02*
X121165904Y-79766438D01*
X121165904Y-79766438D02*
X121118285Y-79814057D01*
X121118285Y-79814057D02*
X121070666Y-79909295D01*
X121070666Y-79909295D02*
X121070666Y-80052152D01*
X121070666Y-80052152D02*
X121118285Y-80147390D01*
X121118285Y-80147390D02*
X121165904Y-80195009D01*
X121165904Y-80195009D02*
X121261142Y-80242628D01*
X121261142Y-80242628D02*
X121642094Y-80242628D01*
X120118285Y-80718819D02*
X120689713Y-80718819D01*
X120403999Y-80718819D02*
X120403999Y-79718819D01*
X120403999Y-79718819D02*
X120499237Y-79861676D01*
X120499237Y-79861676D02*
X120594475Y-79956914D01*
X120594475Y-79956914D02*
X120689713Y-80004533D01*
X127454819Y-77081142D02*
X126978628Y-76747809D01*
X127454819Y-76509714D02*
X126454819Y-76509714D01*
X126454819Y-76509714D02*
X126454819Y-76890666D01*
X126454819Y-76890666D02*
X126502438Y-76985904D01*
X126502438Y-76985904D02*
X126550057Y-77033523D01*
X126550057Y-77033523D02*
X126645295Y-77081142D01*
X126645295Y-77081142D02*
X126788152Y-77081142D01*
X126788152Y-77081142D02*
X126883390Y-77033523D01*
X126883390Y-77033523D02*
X126931009Y-76985904D01*
X126931009Y-76985904D02*
X126978628Y-76890666D01*
X126978628Y-76890666D02*
X126978628Y-76509714D01*
X127454819Y-78033523D02*
X127454819Y-77462095D01*
X127454819Y-77747809D02*
X126454819Y-77747809D01*
X126454819Y-77747809D02*
X126597676Y-77652571D01*
X126597676Y-77652571D02*
X126692914Y-77557333D01*
X126692914Y-77557333D02*
X126740533Y-77462095D01*
X127454819Y-78985904D02*
X127454819Y-78414476D01*
X127454819Y-78700190D02*
X126454819Y-78700190D01*
X126454819Y-78700190D02*
X126597676Y-78604952D01*
X126597676Y-78604952D02*
X126692914Y-78509714D01*
X126692914Y-78509714D02*
X126740533Y-78414476D01*
X133296819Y-98671142D02*
X132820628Y-98337809D01*
X133296819Y-98099714D02*
X132296819Y-98099714D01*
X132296819Y-98099714D02*
X132296819Y-98480666D01*
X132296819Y-98480666D02*
X132344438Y-98575904D01*
X132344438Y-98575904D02*
X132392057Y-98623523D01*
X132392057Y-98623523D02*
X132487295Y-98671142D01*
X132487295Y-98671142D02*
X132630152Y-98671142D01*
X132630152Y-98671142D02*
X132725390Y-98623523D01*
X132725390Y-98623523D02*
X132773009Y-98575904D01*
X132773009Y-98575904D02*
X132820628Y-98480666D01*
X132820628Y-98480666D02*
X132820628Y-98099714D01*
X133296819Y-99623523D02*
X133296819Y-99052095D01*
X133296819Y-99337809D02*
X132296819Y-99337809D01*
X132296819Y-99337809D02*
X132439676Y-99242571D01*
X132439676Y-99242571D02*
X132534914Y-99147333D01*
X132534914Y-99147333D02*
X132582533Y-99052095D01*
X132296819Y-100528285D02*
X132296819Y-100052095D01*
X132296819Y-100052095D02*
X132773009Y-100004476D01*
X132773009Y-100004476D02*
X132725390Y-100052095D01*
X132725390Y-100052095D02*
X132677771Y-100147333D01*
X132677771Y-100147333D02*
X132677771Y-100385428D01*
X132677771Y-100385428D02*
X132725390Y-100480666D01*
X132725390Y-100480666D02*
X132773009Y-100528285D01*
X132773009Y-100528285D02*
X132868247Y-100575904D01*
X132868247Y-100575904D02*
X133106342Y-100575904D01*
X133106342Y-100575904D02*
X133201580Y-100528285D01*
X133201580Y-100528285D02*
X133249200Y-100480666D01*
X133249200Y-100480666D02*
X133296819Y-100385428D01*
X133296819Y-100385428D02*
X133296819Y-100147333D01*
X133296819Y-100147333D02*
X133249200Y-100052095D01*
X133249200Y-100052095D02*
X133201580Y-100004476D01*
X133296819Y-95623142D02*
X132820628Y-95289809D01*
X133296819Y-95051714D02*
X132296819Y-95051714D01*
X132296819Y-95051714D02*
X132296819Y-95432666D01*
X132296819Y-95432666D02*
X132344438Y-95527904D01*
X132344438Y-95527904D02*
X132392057Y-95575523D01*
X132392057Y-95575523D02*
X132487295Y-95623142D01*
X132487295Y-95623142D02*
X132630152Y-95623142D01*
X132630152Y-95623142D02*
X132725390Y-95575523D01*
X132725390Y-95575523D02*
X132773009Y-95527904D01*
X132773009Y-95527904D02*
X132820628Y-95432666D01*
X132820628Y-95432666D02*
X132820628Y-95051714D01*
X133296819Y-96575523D02*
X133296819Y-96004095D01*
X133296819Y-96289809D02*
X132296819Y-96289809D01*
X132296819Y-96289809D02*
X132439676Y-96194571D01*
X132439676Y-96194571D02*
X132534914Y-96099333D01*
X132534914Y-96099333D02*
X132582533Y-96004095D01*
X132630152Y-97432666D02*
X133296819Y-97432666D01*
X132249200Y-97194571D02*
X132963485Y-96956476D01*
X132963485Y-96956476D02*
X132963485Y-97575523D01*
X121070666Y-75638819D02*
X121403999Y-75162628D01*
X121642094Y-75638819D02*
X121642094Y-74638819D01*
X121642094Y-74638819D02*
X121261142Y-74638819D01*
X121261142Y-74638819D02*
X121165904Y-74686438D01*
X121165904Y-74686438D02*
X121118285Y-74734057D01*
X121118285Y-74734057D02*
X121070666Y-74829295D01*
X121070666Y-74829295D02*
X121070666Y-74972152D01*
X121070666Y-74972152D02*
X121118285Y-75067390D01*
X121118285Y-75067390D02*
X121165904Y-75115009D01*
X121165904Y-75115009D02*
X121261142Y-75162628D01*
X121261142Y-75162628D02*
X121642094Y-75162628D01*
X120689713Y-74734057D02*
X120642094Y-74686438D01*
X120642094Y-74686438D02*
X120546856Y-74638819D01*
X120546856Y-74638819D02*
X120308761Y-74638819D01*
X120308761Y-74638819D02*
X120213523Y-74686438D01*
X120213523Y-74686438D02*
X120165904Y-74734057D01*
X120165904Y-74734057D02*
X120118285Y-74829295D01*
X120118285Y-74829295D02*
X120118285Y-74924533D01*
X120118285Y-74924533D02*
X120165904Y-75067390D01*
X120165904Y-75067390D02*
X120737332Y-75638819D01*
X120737332Y-75638819D02*
X120118285Y-75638819D01*
X135897857Y-94147819D02*
X136231190Y-93671628D01*
X136469285Y-94147819D02*
X136469285Y-93147819D01*
X136469285Y-93147819D02*
X136088333Y-93147819D01*
X136088333Y-93147819D02*
X135993095Y-93195438D01*
X135993095Y-93195438D02*
X135945476Y-93243057D01*
X135945476Y-93243057D02*
X135897857Y-93338295D01*
X135897857Y-93338295D02*
X135897857Y-93481152D01*
X135897857Y-93481152D02*
X135945476Y-93576390D01*
X135945476Y-93576390D02*
X135993095Y-93624009D01*
X135993095Y-93624009D02*
X136088333Y-93671628D01*
X136088333Y-93671628D02*
X136469285Y-93671628D01*
X134945476Y-94147819D02*
X135516904Y-94147819D01*
X135231190Y-94147819D02*
X135231190Y-93147819D01*
X135231190Y-93147819D02*
X135326428Y-93290676D01*
X135326428Y-93290676D02*
X135421666Y-93385914D01*
X135421666Y-93385914D02*
X135516904Y-93433533D01*
X134612142Y-93147819D02*
X133993095Y-93147819D01*
X133993095Y-93147819D02*
X134326428Y-93528771D01*
X134326428Y-93528771D02*
X134183571Y-93528771D01*
X134183571Y-93528771D02*
X134088333Y-93576390D01*
X134088333Y-93576390D02*
X134040714Y-93624009D01*
X134040714Y-93624009D02*
X133993095Y-93719247D01*
X133993095Y-93719247D02*
X133993095Y-93957342D01*
X133993095Y-93957342D02*
X134040714Y-94052580D01*
X134040714Y-94052580D02*
X134088333Y-94100200D01*
X134088333Y-94100200D02*
X134183571Y-94147819D01*
X134183571Y-94147819D02*
X134469285Y-94147819D01*
X134469285Y-94147819D02*
X134564523Y-94100200D01*
X134564523Y-94100200D02*
X134612142Y-94052580D01*
X135897857Y-102562819D02*
X136231190Y-102086628D01*
X136469285Y-102562819D02*
X136469285Y-101562819D01*
X136469285Y-101562819D02*
X136088333Y-101562819D01*
X136088333Y-101562819D02*
X135993095Y-101610438D01*
X135993095Y-101610438D02*
X135945476Y-101658057D01*
X135945476Y-101658057D02*
X135897857Y-101753295D01*
X135897857Y-101753295D02*
X135897857Y-101896152D01*
X135897857Y-101896152D02*
X135945476Y-101991390D01*
X135945476Y-101991390D02*
X135993095Y-102039009D01*
X135993095Y-102039009D02*
X136088333Y-102086628D01*
X136088333Y-102086628D02*
X136469285Y-102086628D01*
X134945476Y-102562819D02*
X135516904Y-102562819D01*
X135231190Y-102562819D02*
X135231190Y-101562819D01*
X135231190Y-101562819D02*
X135326428Y-101705676D01*
X135326428Y-101705676D02*
X135421666Y-101800914D01*
X135421666Y-101800914D02*
X135516904Y-101848533D01*
X134088333Y-101562819D02*
X134278809Y-101562819D01*
X134278809Y-101562819D02*
X134374047Y-101610438D01*
X134374047Y-101610438D02*
X134421666Y-101658057D01*
X134421666Y-101658057D02*
X134516904Y-101800914D01*
X134516904Y-101800914D02*
X134564523Y-101991390D01*
X134564523Y-101991390D02*
X134564523Y-102372342D01*
X134564523Y-102372342D02*
X134516904Y-102467580D01*
X134516904Y-102467580D02*
X134469285Y-102515200D01*
X134469285Y-102515200D02*
X134374047Y-102562819D01*
X134374047Y-102562819D02*
X134183571Y-102562819D01*
X134183571Y-102562819D02*
X134088333Y-102515200D01*
X134088333Y-102515200D02*
X134040714Y-102467580D01*
X134040714Y-102467580D02*
X133993095Y-102372342D01*
X133993095Y-102372342D02*
X133993095Y-102134247D01*
X133993095Y-102134247D02*
X134040714Y-102039009D01*
X134040714Y-102039009D02*
X134088333Y-101991390D01*
X134088333Y-101991390D02*
X134183571Y-101943771D01*
X134183571Y-101943771D02*
X134374047Y-101943771D01*
X134374047Y-101943771D02*
X134469285Y-101991390D01*
X134469285Y-101991390D02*
X134516904Y-102039009D01*
X134516904Y-102039009D02*
X134564523Y-102134247D01*
D13*
X119890000Y-97491733D02*
X119890000Y-97834267D01*
X118870000Y-97491733D02*
X118870000Y-97834267D01*
X134492276Y-76289000D02*
X135001724Y-76289000D01*
X134492276Y-77334000D02*
X135001724Y-77334000D01*
X122066267Y-99062000D02*
X121773733Y-99062000D01*
X122066267Y-98042000D02*
X121773733Y-98042000D01*
X130028733Y-96137000D02*
X130321267Y-96137000D01*
X130028733Y-97157000D02*
X130321267Y-97157000D01*
X129525500Y-77978724D02*
X129525500Y-77469276D01*
X130570500Y-77978724D02*
X130570500Y-77469276D01*
X132348500Y-77445776D02*
X132348500Y-77955224D01*
X131303500Y-77445776D02*
X131303500Y-77955224D01*
X122066267Y-97284000D02*
X121773733Y-97284000D01*
X122066267Y-96264000D02*
X121773733Y-96264000D01*
X124606267Y-81790000D02*
X124313733Y-81790000D01*
X124606267Y-80770000D02*
X124313733Y-80770000D01*
X134492276Y-78321000D02*
X135001724Y-78321000D01*
X134492276Y-79366000D02*
X135001724Y-79366000D01*
X129432267Y-81790000D02*
X129139733Y-81790000D01*
X129432267Y-80770000D02*
X129139733Y-80770000D01*
X130028733Y-98042000D02*
X130321267Y-98042000D01*
X130028733Y-99062000D02*
X130321267Y-99062000D01*
X124220500Y-77469276D02*
X124220500Y-77978724D01*
X123175500Y-77469276D02*
X123175500Y-77978724D01*
X124970000Y-97477733D02*
X124970000Y-97820267D01*
X123950000Y-97477733D02*
X123950000Y-97820267D01*
X121158724Y-79262500D02*
X120649276Y-79262500D01*
X121158724Y-78217500D02*
X120649276Y-78217500D01*
X125998500Y-77469276D02*
X125998500Y-77978724D01*
X124953500Y-77469276D02*
X124953500Y-77978724D01*
X135509724Y-99201500D02*
X135000276Y-99201500D01*
X135509724Y-98156500D02*
X135000276Y-98156500D01*
X135509724Y-97423500D02*
X135000276Y-97423500D01*
X135509724Y-96378500D02*
X135000276Y-96378500D01*
X121158724Y-77230500D02*
X120649276Y-77230500D01*
X121158724Y-76185500D02*
X120649276Y-76185500D01*
X135509724Y-95645500D02*
X135000276Y-95645500D01*
X135509724Y-94600500D02*
X135000276Y-94600500D01*
X135509724Y-100979500D02*
X135000276Y-100979500D01*
X135509724Y-99934500D02*
X135000276Y-99934500D01*
%LPC*%
D14*
X130302000Y-105410000D03*
D15*
X135382000Y-105410000D03*
D16*
X135001000Y-89921000D03*
D17*
X135001000Y-87381000D03*
D14*
X120142000Y-105410000D03*
D15*
X125222000Y-105410000D03*
D16*
X134112000Y-67818000D03*
D17*
X134112000Y-65278000D03*
X131572000Y-67818000D03*
X131572000Y-65278000D03*
X129032000Y-67818000D03*
X129032000Y-65278000D03*
X126492000Y-67818000D03*
X126492000Y-65278000D03*
X123952000Y-67818000D03*
X123952000Y-65278000D03*
X121412000Y-67818000D03*
X121412000Y-65278000D03*
D18*
X119380000Y-96788000D03*
X119380000Y-98538000D03*
D19*
X133834500Y-76811500D03*
X135659500Y-76811500D03*
D20*
X122782500Y-98552000D03*
X121057500Y-98552000D03*
D21*
X129312500Y-96647000D03*
X131037500Y-96647000D03*
D22*
X130048000Y-78636500D03*
X130048000Y-76811500D03*
D23*
X131826000Y-76788000D03*
X131826000Y-78613000D03*
D20*
X122782500Y-96774000D03*
X121057500Y-96774000D03*
X125322500Y-81280000D03*
X123597500Y-81280000D03*
D19*
X133834500Y-78843500D03*
X135659500Y-78843500D03*
D20*
X130148500Y-81280000D03*
X128423500Y-81280000D03*
D21*
X129312500Y-98552000D03*
X131037500Y-98552000D03*
D23*
X123698000Y-76811500D03*
X123698000Y-78636500D03*
D18*
X124460000Y-96774000D03*
X124460000Y-98524000D03*
D24*
X121816500Y-78740000D03*
X119991500Y-78740000D03*
D23*
X125476000Y-76811500D03*
X125476000Y-78636500D03*
D24*
X136167500Y-98679000D03*
X134342500Y-98679000D03*
X136167500Y-96901000D03*
X134342500Y-96901000D03*
X121816500Y-76708000D03*
X119991500Y-76708000D03*
X136167500Y-95123000D03*
X134342500Y-95123000D03*
X136167500Y-100457000D03*
X134342500Y-100457000D03*
%LPD*%
M02*
